<?xml version="1.0" encoding="utf-8"?>
<!-- Generator: Adobe Illustrator 27.5.0, SVG Export Plug-In . SVG Version: 6.00 Build 0)  -->
<svg version="1.1" id="BACKGROUND" xmlns="http://www.w3.org/2000/svg" xmlns:xlink="http://www.w3.org/1999/xlink" x="0px" y="0px"
	 viewBox="0 0 750 500" style="enable-background:new 0 0 750 500;" xml:space="preserve">
<g>
	<g>
		<rect style="fill:#EDF2F7;" width="750" height="500"/>
		<polygon style="fill:#F2F2F2;" points="0,323 450,0 0,0 		"/>
		<polygon style="fill:#F2F2F2;" points="750,177 300,500 750,500 		"/>
	</g>
	<g>
		<g>
			<defs>
				<rect id="SVGID_1_" width="750" height="500"/>
			</defs>
			<clipPath id="SVGID_00000183248435364812242770000004798101233161745825_">
				<use xlink:href="#SVGID_1_"  style="overflow:visible;"/>
			</clipPath>
			<g style="clip-path:url(#SVGID_00000183248435364812242770000004798101233161745825_);">
				<circle style="fill:none;stroke:#028EFD;stroke-width:30;stroke-miterlimit:10;" cx="693.287" cy="462.351" r="91.627"/>
				<g>
					<circle style="fill:#C8EFFF;" cx="600.612" cy="385.725" r="57.535"/>
					<circle style="fill:none;stroke:#00528C;stroke-width:2;stroke-miterlimit:10;" cx="586.127" cy="385.725" r="57.535"/>
				</g>
				<circle style="fill:#C8EFFF;" cx="546.585" cy="76.585" r="35.722"/>
				
					<ellipse transform="matrix(0.7071 -0.7071 0.7071 0.7071 184.0136 482.1647)" style="fill:#FFDFEC;" cx="674.031" cy="18.958" rx="57.627" ry="57.627"/>
				<g>
					<circle style="fill:#C8EFFF;" cx="148.345" cy="95.612" r="57.627"/>
					<path style="fill:none;stroke:#FFDFEC;stroke-width:5;stroke-miterlimit:10;" d="M156.982,23.524
						c36.417,0,65.939,29.522,65.939,65.939"/>
				</g>
				<g>
					<g>
						<path style="fill:#FF3368;" d="M143.373,299.157c-41.873,0-75.938-34.065-75.938-75.939h20
							c0,30.845,25.094,55.939,55.938,55.939V299.157z"/>
					</g>
				</g>
				<g>
					<g>
						<path style="fill:#C8EFFF;" d="M315.002,452.5c-20.936,0-37.969-17.033-37.969-37.969h10
							c0,15.422,12.547,27.969,27.969,27.969V452.5z"/>
					</g>
				</g>
				<g>
					<g>
						<path style="fill:#FF3368;" d="M16.474,33.651V7.304c40.633,0,73.689-33.058,73.689-73.691h26.347
							C116.51-11.226,71.634,33.651,16.474,33.651z"/>
					</g>
					<g>
						<path style="fill:none;stroke:#00528C;stroke-miterlimit:10;" d="M21.474,35.291V8.944c40.633,0,73.689-33.058,73.689-73.691
							h26.347C121.51-9.586,76.634,35.291,21.474,35.291z"/>
					</g>
				</g>
				<path style="fill:none;stroke:#C8EFFF;stroke-width:6;stroke-miterlimit:10;" d="M148.799,264.159
					c-25.764,0-46.65-20.886-46.65-46.65"/>
				<g>
					<path style="fill:#FF3368;" d="M277.033,39.605h-10c0-10.639-8.655-19.294-19.294-19.294c-10.639,0-19.293,8.655-19.293,19.294
						h-10c0-16.153,13.141-29.294,29.293-29.294C263.892,10.311,277.033,23.452,277.033,39.605z"/>
				</g>
				<g>
					<g>
						<g>
							<path style="fill:#FFDFEC;" d="M501.098,470.515c-16.152,0-29.294-13.142-29.294-29.294h10
								c0,10.639,8.655,19.294,19.294,19.294c10.639,0,19.293-8.655,19.293-19.294h10
								C530.391,457.373,517.25,470.515,501.098,470.515z"/>
						</g>
					</g>
					<g>
						<path style="fill:none;stroke:#00528C;stroke-miterlimit:10;" d="M504.598,467.147c-16.152,0-29.294-13.142-29.294-29.294h10
							c0,10.639,8.655,19.294,19.294,19.294c10.639,0,19.293-8.655,19.293-19.294h10
							C533.891,454.005,520.75,467.147,504.598,467.147z"/>
					</g>
				</g>
				<g>
					<g>
						<g>
							<path style="fill:#C8EFFF;" d="M37.41,304.916c0,16.152-13.142,29.294-29.294,29.294v-10
								c10.639,0,19.294-8.655,19.294-19.294c0-10.639-8.655-19.293-19.294-19.293v-10C24.269,275.623,37.41,288.764,37.41,304.916z
								"/>
						</g>
					</g>
					<g>
						<path style="fill:none;stroke:#00528C;stroke-miterlimit:10;" d="M40.264,299.156c0,16.152-13.142,29.294-29.294,29.294v-10
							c10.639,0,19.294-8.655,19.294-19.294c0-10.639-8.655-19.293-19.294-19.293v-10C27.122,269.863,40.264,283.004,40.264,299.156
							z"/>
					</g>
				</g>
				<g>
					<path style="fill:#FF3368;" d="M557.619,387.377h-20c0-18.164-14.777-32.942-32.941-32.942
						c-18.164,0-32.942,14.778-32.942,32.942h-20c0-29.192,23.75-52.942,52.942-52.942
						C533.87,334.435,557.619,358.185,557.619,387.377z"/>
				</g>
				<g>
					<circle style="fill:none;stroke:#00528C;stroke-width:2;stroke-miterlimit:10;" cx="35.617" cy="152.508" r="92.5"/>
					<circle style="fill:none;stroke:#00528C;stroke-width:2;stroke-miterlimit:10;" cx="35.617" cy="152.508" r="72.5"/>
					<circle style="fill:none;stroke:#00528C;stroke-width:2;stroke-miterlimit:10;" cx="35.617" cy="152.508" r="50"/>
					<circle style="fill:none;stroke:#00528C;stroke-width:2;stroke-miterlimit:10;" cx="35.617" cy="152.508" r="27.5"/>
					<circle style="fill:none;stroke:#00528C;stroke-width:2;stroke-miterlimit:10;" cx="35.617" cy="152.508" r="10"/>
				</g>
				<g>
					<circle style="fill:none;stroke:#00528C;stroke-width:2;stroke-miterlimit:10;" cx="712.537" cy="0" r="151.402"/>
					<circle style="fill:none;stroke:#00528C;stroke-width:2;stroke-miterlimit:10;" cx="712.537" cy="0" r="118.666"/>
					<circle style="fill:none;stroke:#00528C;stroke-width:2;stroke-miterlimit:10;" cx="712.537" cy="0" r="81.839"/>
					<circle style="fill:none;stroke:#00528C;stroke-width:2;stroke-miterlimit:10;" cx="712.537" cy="0" r="45.011"/>
					<circle style="fill:none;stroke:#00528C;stroke-width:2;stroke-miterlimit:10;" cx="712.537" cy="0" r="16.368"/>
				</g>
				<g>
					
						<ellipse transform="matrix(0.7071 -0.7071 0.7071 0.7071 -347.1628 179.2026)" style="fill:#FFDFEC;" cx="42.735" cy="508.664" rx="98.559" ry="98.559"/>
					
						<ellipse transform="matrix(0.7071 -0.7071 0.7071 0.7071 -344.5357 173.0332)" style="fill:none;stroke:#00528C;stroke-miterlimit:10;" cx="36.602" cy="502.408" rx="98.559" ry="98.559"/>
				</g>
				<g>
					<circle style="fill:none;stroke:#00528C;stroke-width:3;stroke-miterlimit:10;" cx="162.482" cy="188.097" r="5"/>
					<circle style="fill:none;stroke:#00528C;stroke-width:3;stroke-miterlimit:10;" cx="721.756" cy="217.508" r="5"/>
					<circle style="fill:none;stroke:#00528C;stroke-width:3;stroke-miterlimit:10;" cx="642.127" cy="329.641" r="5"/>
					<circle style="fill:none;stroke:#00528C;stroke-width:3;stroke-miterlimit:10;" cx="443" cy="475.416" r="5"/>
					<circle style="fill:none;stroke:#00528C;stroke-width:3;stroke-miterlimit:10;" cx="66.492" cy="368.406" r="7.5"/>
					<circle style="fill:none;stroke:#00528C;stroke-width:3;stroke-miterlimit:10;" cx="608.904" cy="188.097" r="7.5"/>
					<circle style="fill:none;stroke:#00528C;stroke-width:3;stroke-miterlimit:10;" cx="448" cy="33.68" r="7.5"/>
					<circle style="fill:none;stroke:#00528C;stroke-width:3;stroke-miterlimit:10;" cx="76.492" cy="40.291" r="5"/>
				</g>
				<g>
					<g>
						<g>
							<circle style="fill:#00528C;" cx="502.597" cy="-19.207" r="1.5"/>
							<circle style="fill:#00528C;" cx="487.903" cy="-19.207" r="1.5"/>
							<circle style="fill:#00528C;" cx="517.291" cy="-19.207" r="1.5"/>
							<circle style="fill:#00528C;" cx="531.986" cy="-19.207" r="1.5"/>
						</g>
						<g>
							<circle style="fill:#00528C;" cx="502.597" cy="-5.985" r="1.5"/>
							<circle style="fill:#00528C;" cx="487.903" cy="-5.985" r="1.5"/>
							<circle style="fill:#00528C;" cx="517.291" cy="-5.985" r="1.5"/>
							<circle style="fill:#00528C;" cx="531.986" cy="-5.985" r="1.5"/>
						</g>
						<g>
							<circle style="fill:#00528C;" cx="502.597" cy="7.237" r="1.5"/>
							<circle style="fill:#00528C;" cx="487.903" cy="7.237" r="1.5"/>
							<circle style="fill:#00528C;" cx="517.291" cy="7.237" r="1.5"/>
							<circle style="fill:#00528C;" cx="531.986" cy="7.237" r="1.5"/>
						</g>
						<g>
							<circle style="fill:#00528C;" cx="502.597" cy="20.458" r="1.5"/>
							<circle style="fill:#00528C;" cx="487.903" cy="20.458" r="1.5"/>
							<circle style="fill:#00528C;" cx="517.291" cy="20.458" r="1.5"/>
							<circle style="fill:#00528C;" cx="531.986" cy="20.458" r="1.5"/>
						</g>
						<g>
							<circle style="fill:#00528C;" cx="502.597" cy="33.68" r="1.5"/>
							<circle style="fill:#00528C;" cx="487.903" cy="33.68" r="1.5"/>
							<circle style="fill:#00528C;" cx="517.291" cy="33.68" r="1.5"/>
							<circle style="fill:#00528C;" cx="531.986" cy="33.68" r="1.5"/>
						</g>
						<g>
							<circle style="fill:#00528C;" cx="502.597" cy="46.902" r="1.5"/>
							<circle style="fill:#00528C;" cx="487.903" cy="46.902" r="1.5"/>
							<circle style="fill:#00528C;" cx="517.291" cy="46.902" r="1.5"/>
							<circle style="fill:#00528C;" cx="531.986" cy="46.902" r="1.5"/>
						</g>
						<g>
							<circle style="fill:#00528C;" cx="502.597" cy="60.123" r="1.5"/>
							<circle style="fill:#00528C;" cx="487.903" cy="60.123" r="1.5"/>
							<circle style="fill:#00528C;" cx="517.291" cy="60.123" r="1.5"/>
							<circle style="fill:#00528C;" cx="531.986" cy="60.123" r="1.5"/>
						</g>
						<g>
							<circle style="fill:#00528C;" cx="502.597" cy="73.345" r="1.5"/>
							<circle style="fill:#00528C;" cx="487.903" cy="73.345" r="1.5"/>
							<circle style="fill:#00528C;" cx="517.291" cy="73.345" r="1.5"/>
							<circle style="fill:#00528C;" cx="531.986" cy="73.345" r="1.5"/>
						</g>
						<g>
							<circle style="fill:#00528C;" cx="502.597" cy="86.566" r="1.5"/>
							<circle style="fill:#00528C;" cx="487.903" cy="86.566" r="1.5"/>
							<circle style="fill:#00528C;" cx="517.291" cy="86.566" r="1.5"/>
							<circle style="fill:#00528C;" cx="531.986" cy="86.566" r="1.5"/>
						</g>
						<g>
							<circle style="fill:#00528C;" cx="502.597" cy="99.788" r="1.5"/>
							<circle style="fill:#00528C;" cx="487.903" cy="99.788" r="1.5"/>
							<circle style="fill:#00528C;" cx="517.291" cy="99.788" r="1.5"/>
							<circle style="fill:#00528C;" cx="531.986" cy="99.788" r="1.5"/>
						</g>
					</g>
				</g>
				<g>
					<g>
						<g>
							<circle style="fill:#00528C;" cx="221.065" cy="527.566" r="1.5"/>
							<circle style="fill:#00528C;" cx="235.759" cy="527.566" r="1.5"/>
							<circle style="fill:#00528C;" cx="206.37" cy="527.566" r="1.5"/>
							<circle style="fill:#00528C;" cx="191.676" cy="527.566" r="1.5"/>
						</g>
						<g>
							<circle style="fill:#00528C;" cx="221.065" cy="514.345" r="1.5"/>
							<circle style="fill:#00528C;" cx="235.759" cy="514.345" r="1.5"/>
							<circle style="fill:#00528C;" cx="206.37" cy="514.345" r="1.5"/>
							<circle style="fill:#00528C;" cx="191.676" cy="514.345" r="1.5"/>
						</g>
						<g>
							<circle style="fill:#00528C;" cx="221.065" cy="501.123" r="1.5"/>
							<circle style="fill:#00528C;" cx="235.759" cy="501.123" r="1.5"/>
							<circle style="fill:#00528C;" cx="206.37" cy="501.123" r="1.5"/>
							<circle style="fill:#00528C;" cx="191.676" cy="501.123" r="1.5"/>
						</g>
						<g>
							<circle style="fill:#00528C;" cx="221.065" cy="487.901" r="1.5"/>
							<circle style="fill:#00528C;" cx="235.759" cy="487.901" r="1.5"/>
							<circle style="fill:#00528C;" cx="206.37" cy="487.901" r="1.5"/>
							<circle style="fill:#00528C;" cx="191.676" cy="487.901" r="1.5"/>
						</g>
						<g>
							<circle style="fill:#00528C;" cx="221.065" cy="474.68" r="1.5"/>
							<circle style="fill:#00528C;" cx="235.759" cy="474.68" r="1.5"/>
							<circle style="fill:#00528C;" cx="206.37" cy="474.68" r="1.5"/>
							<circle style="fill:#00528C;" cx="191.676" cy="474.68" r="1.5"/>
						</g>
						<g>
							<circle style="fill:#00528C;" cx="221.065" cy="461.458" r="1.5"/>
							<circle style="fill:#00528C;" cx="235.759" cy="461.458" r="1.5"/>
							<circle style="fill:#00528C;" cx="206.37" cy="461.458" r="1.5"/>
							<circle style="fill:#00528C;" cx="191.676" cy="461.458" r="1.5"/>
						</g>
						<g>
							<circle style="fill:#00528C;" cx="221.065" cy="448.237" r="1.5"/>
							<circle style="fill:#00528C;" cx="235.759" cy="448.237" r="1.5"/>
							<circle style="fill:#00528C;" cx="206.37" cy="448.237" r="1.5"/>
							<circle style="fill:#00528C;" cx="191.676" cy="448.237" r="1.5"/>
						</g>
						<g>
							<circle style="fill:#00528C;" cx="221.065" cy="435.015" r="1.5"/>
							<circle style="fill:#00528C;" cx="235.759" cy="435.015" r="1.5"/>
							<circle style="fill:#00528C;" cx="206.37" cy="435.015" r="1.5"/>
							<circle style="fill:#00528C;" cx="191.676" cy="435.015" r="1.5"/>
						</g>
						<g>
							<circle style="fill:#00528C;" cx="221.065" cy="421.793" r="1.5"/>
							<circle style="fill:#00528C;" cx="235.759" cy="421.793" r="1.5"/>
							<circle style="fill:#00528C;" cx="206.37" cy="421.793" r="1.5"/>
							<circle style="fill:#00528C;" cx="191.676" cy="421.793" r="1.5"/>
						</g>
						<g>
							<circle style="fill:#00528C;" cx="221.065" cy="408.572" r="1.5"/>
							<circle style="fill:#00528C;" cx="235.759" cy="408.572" r="1.5"/>
							<circle style="fill:#00528C;" cx="206.37" cy="408.572" r="1.5"/>
							<circle style="fill:#00528C;" cx="191.676" cy="408.572" r="1.5"/>
						</g>
					</g>
				</g>
				<g>
					<g>
						<g>
							<circle style="fill:#00528C;" cx="149.845" cy="140.708" r="1.5"/>
							<circle style="fill:#00528C;" cx="149.845" cy="155.402" r="1.5"/>
							<circle style="fill:#00528C;" cx="149.845" cy="126.013" r="1.5"/>
							<circle style="fill:#00528C;" cx="149.845" cy="111.319" r="1.5"/>
						</g>
						<g>
							<circle style="fill:#00528C;" cx="163.066" cy="140.708" r="1.5"/>
							<circle style="fill:#00528C;" cx="163.066" cy="155.402" r="1.5"/>
							<circle style="fill:#00528C;" cx="163.066" cy="126.013" r="1.5"/>
							<circle style="fill:#00528C;" cx="163.066" cy="111.319" r="1.5"/>
						</g>
						<g>
							<circle style="fill:#00528C;" cx="176.288" cy="140.708" r="1.5"/>
							<circle style="fill:#00528C;" cx="176.288" cy="155.402" r="1.5"/>
							<circle style="fill:#00528C;" cx="176.288" cy="126.013" r="1.5"/>
							<circle style="fill:#00528C;" cx="176.288" cy="111.319" r="1.5"/>
						</g>
						<g>
							<circle style="fill:#00528C;" cx="189.51" cy="140.708" r="1.5"/>
							<circle style="fill:#00528C;" cx="189.51" cy="155.402" r="1.5"/>
							<circle style="fill:#00528C;" cx="189.51" cy="126.013" r="1.5"/>
							<circle style="fill:#00528C;" cx="189.51" cy="111.319" r="1.5"/>
						</g>
						<g>
							<circle style="fill:#00528C;" cx="202.731" cy="140.708" r="1.5"/>
							<circle style="fill:#00528C;" cx="202.731" cy="155.402" r="1.5"/>
							<circle style="fill:#00528C;" cx="202.731" cy="126.013" r="1.5"/>
							<circle style="fill:#00528C;" cx="202.731" cy="111.319" r="1.5"/>
						</g>
						<g>
							<circle style="fill:#00528C;" cx="215.953" cy="140.708" r="1.5"/>
							<circle style="fill:#00528C;" cx="215.953" cy="155.402" r="1.5"/>
							<circle style="fill:#00528C;" cx="215.953" cy="126.013" r="1.5"/>
							<circle style="fill:#00528C;" cx="215.953" cy="111.319" r="1.5"/>
						</g>
						<g>
							<circle style="fill:#00528C;" cx="229.174" cy="140.708" r="1.5"/>
							<circle style="fill:#00528C;" cx="229.174" cy="155.402" r="1.5"/>
							<circle style="fill:#00528C;" cx="229.174" cy="126.013" r="1.5"/>
							<circle style="fill:#00528C;" cx="229.174" cy="111.319" r="1.5"/>
						</g>
						<g>
							<circle style="fill:#00528C;" cx="242.396" cy="140.708" r="1.5"/>
							<circle style="fill:#00528C;" cx="242.396" cy="155.402" r="1.5"/>
							<circle style="fill:#00528C;" cx="242.396" cy="126.013" r="1.5"/>
							<circle style="fill:#00528C;" cx="242.396" cy="111.319" r="1.5"/>
						</g>
						<g>
							<circle style="fill:#00528C;" cx="255.617" cy="140.708" r="1.5"/>
							<circle style="fill:#00528C;" cx="255.617" cy="155.402" r="1.5"/>
							<circle style="fill:#00528C;" cx="255.617" cy="126.013" r="1.5"/>
							<circle style="fill:#00528C;" cx="255.617" cy="111.319" r="1.5"/>
						</g>
						<g>
							<circle style="fill:#00528C;" cx="268.839" cy="140.708" r="1.5"/>
							<circle style="fill:#00528C;" cx="268.839" cy="155.402" r="1.5"/>
							<circle style="fill:#00528C;" cx="268.839" cy="126.013" r="1.5"/>
							<circle style="fill:#00528C;" cx="268.839" cy="111.319" r="1.5"/>
						</g>
					</g>
				</g>
				<g>
					<g>
						<g>
							<circle style="fill:#00528C;" cx="674.031" cy="453.375" r="1.5"/>
							<circle style="fill:#00528C;" cx="674.031" cy="468.069" r="1.5"/>
							<circle style="fill:#00528C;" cx="674.031" cy="438.681" r="1.5"/>
							<circle style="fill:#00528C;" cx="674.031" cy="423.986" r="1.5"/>
						</g>
						<g>
							<circle style="fill:#00528C;" cx="687.253" cy="453.375" r="1.5"/>
							<circle style="fill:#00528C;" cx="687.253" cy="468.069" r="1.5"/>
							<circle style="fill:#00528C;" cx="687.253" cy="438.681" r="1.5"/>
							<circle style="fill:#00528C;" cx="687.253" cy="423.986" r="1.5"/>
						</g>
						<g>
							<circle style="fill:#00528C;" cx="700.474" cy="453.375" r="1.5"/>
							<circle style="fill:#00528C;" cx="700.474" cy="468.069" r="1.5"/>
							<circle style="fill:#00528C;" cx="700.474" cy="438.681" r="1.5"/>
							<circle style="fill:#00528C;" cx="700.474" cy="423.986" r="1.5"/>
						</g>
						<g>
							<circle style="fill:#00528C;" cx="713.696" cy="453.375" r="1.5"/>
							<circle style="fill:#00528C;" cx="713.696" cy="468.069" r="1.5"/>
							<circle style="fill:#00528C;" cx="713.696" cy="438.681" r="1.5"/>
							<circle style="fill:#00528C;" cx="713.696" cy="423.986" r="1.5"/>
						</g>
						<g>
							<circle style="fill:#00528C;" cx="726.918" cy="453.375" r="1.5"/>
							<circle style="fill:#00528C;" cx="726.918" cy="468.069" r="1.5"/>
							<circle style="fill:#00528C;" cx="726.918" cy="438.681" r="1.5"/>
							<circle style="fill:#00528C;" cx="726.918" cy="423.986" r="1.5"/>
						</g>
						<g>
							<circle style="fill:#00528C;" cx="740.139" cy="453.375" r="1.5"/>
							<circle style="fill:#00528C;" cx="740.139" cy="468.069" r="1.5"/>
							<circle style="fill:#00528C;" cx="740.139" cy="438.681" r="1.5"/>
							<circle style="fill:#00528C;" cx="740.139" cy="423.986" r="1.5"/>
						</g>
						<g>
							<circle style="fill:#00528C;" cx="753.361" cy="453.375" r="1.5"/>
							<circle style="fill:#00528C;" cx="753.361" cy="468.069" r="1.5"/>
							<circle style="fill:#00528C;" cx="753.361" cy="438.681" r="1.5"/>
							<circle style="fill:#00528C;" cx="753.361" cy="423.986" r="1.5"/>
						</g>
						<g>
							<circle style="fill:#00528C;" cx="766.582" cy="453.375" r="1.5"/>
							<circle style="fill:#00528C;" cx="766.582" cy="468.069" r="1.5"/>
							<circle style="fill:#00528C;" cx="766.582" cy="438.681" r="1.5"/>
							<circle style="fill:#00528C;" cx="766.582" cy="423.986" r="1.5"/>
						</g>
						<g>
							<circle style="fill:#00528C;" cx="779.804" cy="453.375" r="1.5"/>
							<circle style="fill:#00528C;" cx="779.804" cy="468.069" r="1.5"/>
							<circle style="fill:#00528C;" cx="779.804" cy="438.681" r="1.5"/>
							<circle style="fill:#00528C;" cx="779.804" cy="423.986" r="1.5"/>
						</g>
						<g>
							<circle style="fill:#00528C;" cx="793.026" cy="453.375" r="1.5"/>
							<circle style="fill:#00528C;" cx="793.026" cy="468.069" r="1.5"/>
							<circle style="fill:#00528C;" cx="793.026" cy="438.681" r="1.5"/>
							<circle style="fill:#00528C;" cx="793.026" cy="423.986" r="1.5"/>
						</g>
					</g>
				</g>
				<g>
					<g>
						<path style="fill:#028EFD;" d="M142.084,367.954v-23.007c35.483,0,64.35-28.868,64.35-64.351h23.007
							C229.441,328.765,190.253,367.954,142.084,367.954z"/>
					</g>
				</g>
				<g>
					<g>
						<path style="fill:#FF3368;" d="M590.967,290.418v-40c34.363,0,62.32-27.957,62.32-62.321c0-34.364-27.957-62.321-62.32-62.321
							v-40c56.42,0,102.32,45.901,102.32,102.321C693.287,244.517,647.387,290.418,590.967,290.418z"/>
					</g>
					<g>
						<path style="fill:none;stroke:#00528C;stroke-miterlimit:10;" d="M584.503,282.918v-40c34.363,0,62.32-27.957,62.32-62.321
							c0-34.364-27.957-62.321-62.32-62.321v-40c56.42,0,102.32,45.901,102.32,102.321
							C686.824,237.017,640.923,282.918,584.503,282.918z"/>
					</g>
				</g>
				<g>
					<defs>
						
							<ellipse id="SVGID_00000052809509248377065400000007677900292087962045_" transform="matrix(0.9187 -0.3951 0.3951 0.9187 -53.6437 294.1528)" cx="687.469" cy="277.339" rx="51.805" ry="51.805"/>
					</defs>
					<clipPath id="SVGID_00000049928591488258126460000007580656916930984877_">
						<use xlink:href="#SVGID_00000052809509248377065400000007677900292087962045_"  style="overflow:visible;"/>
					</clipPath>
					<g style="clip-path:url(#SVGID_00000049928591488258126460000007580656916930984877_);">
						<g>
							
								<line style="fill:none;stroke:#FFDFEC;stroke-width:4;stroke-miterlimit:10;" x1="749.09" y1="338.666" x2="630.109" y2="219.686"/>
							
								<line style="fill:none;stroke:#FFDFEC;stroke-width:4;stroke-miterlimit:10;" x1="737.434" y1="338.666" x2="618.453" y2="219.686"/>
							
								<line style="fill:none;stroke:#FFDFEC;stroke-width:4;stroke-miterlimit:10;" x1="725.777" y1="338.666" x2="606.797" y2="219.686"/>
							
								<line style="fill:none;stroke:#FFDFEC;stroke-width:4;stroke-miterlimit:10;" x1="714.121" y1="338.666" x2="595.14" y2="219.686"/>
							
								<line style="fill:none;stroke:#FFDFEC;stroke-width:4;stroke-miterlimit:10;" x1="702.464" y1="338.666" x2="583.484" y2="219.686"/>
							
								<line style="fill:none;stroke:#FFDFEC;stroke-width:4;stroke-miterlimit:10;" x1="690.808" y1="338.666" x2="571.828" y2="219.686"/>
							
								<line style="fill:none;stroke:#FFDFEC;stroke-width:4;stroke-miterlimit:10;" x1="679.152" y1="338.666" x2="560.171" y2="219.686"/>
							
								<line style="fill:none;stroke:#FFDFEC;stroke-width:4;stroke-miterlimit:10;" x1="667.495" y1="338.666" x2="548.515" y2="219.686"/>
							
								<line style="fill:none;stroke:#FFDFEC;stroke-width:4;stroke-miterlimit:10;" x1="830.685" y1="338.666" x2="711.704" y2="219.686"/>
							
								<line style="fill:none;stroke:#FFDFEC;stroke-width:4;stroke-miterlimit:10;" x1="819.028" y1="338.666" x2="700.048" y2="219.686"/>
							
								<line style="fill:none;stroke:#FFDFEC;stroke-width:4;stroke-miterlimit:10;" x1="807.372" y1="338.666" x2="688.391" y2="219.686"/>
							
								<line style="fill:none;stroke:#FFDFEC;stroke-width:4;stroke-miterlimit:10;" x1="795.715" y1="338.666" x2="676.735" y2="219.686"/>
							
								<line style="fill:none;stroke:#FFDFEC;stroke-width:4;stroke-miterlimit:10;" x1="784.059" y1="338.666" x2="665.078" y2="219.686"/>
							
								<line style="fill:none;stroke:#FFDFEC;stroke-width:4;stroke-miterlimit:10;" x1="772.403" y1="338.666" x2="653.422" y2="219.686"/>
							
								<line style="fill:none;stroke:#FFDFEC;stroke-width:4;stroke-miterlimit:10;" x1="760.746" y1="338.666" x2="641.766" y2="219.686"/>
						</g>
					</g>
				</g>
				<g>
					<defs>
						<circle id="SVGID_00000142174793139353451220000012889424299717759636_" cx="172.649" cy="366.352" r="63.786"/>
					</defs>
					<clipPath id="SVGID_00000075853934676881434600000016740332067713109165_">
						<use xlink:href="#SVGID_00000142174793139353451220000012889424299717759636_"  style="overflow:visible;"/>
					</clipPath>
					<g style="clip-path:url(#SVGID_00000075853934676881434600000016740332067713109165_);">
						<g>
							
								<line style="fill:none;stroke:#C8EFFF;stroke-width:6;stroke-miterlimit:10;" x1="97.139" y1="442.223" x2="243.635" y2="295.727"/>
							
								<line style="fill:none;stroke:#C8EFFF;stroke-width:6;stroke-miterlimit:10;" x1="97.139" y1="427.871" x2="243.635" y2="281.375"/>
							
								<line style="fill:none;stroke:#C8EFFF;stroke-width:6;stroke-miterlimit:10;" x1="97.139" y1="413.519" x2="243.635" y2="267.023"/>
							
								<line style="fill:none;stroke:#C8EFFF;stroke-width:6;stroke-miterlimit:10;" x1="97.139" y1="399.167" x2="243.635" y2="252.671"/>
							
								<line style="fill:none;stroke:#C8EFFF;stroke-width:6;stroke-miterlimit:10;" x1="97.139" y1="384.815" x2="243.635" y2="238.319"/>
							
								<line style="fill:none;stroke:#C8EFFF;stroke-width:6;stroke-miterlimit:10;" x1="97.139" y1="370.463" x2="243.635" y2="223.967"/>
							
								<line style="fill:none;stroke:#C8EFFF;stroke-width:6;stroke-miterlimit:10;" x1="97.139" y1="356.111" x2="243.635" y2="209.615"/>
							
								<line style="fill:none;stroke:#C8EFFF;stroke-width:6;stroke-miterlimit:10;" x1="97.139" y1="341.759" x2="243.635" y2="195.264"/>
							
								<line style="fill:none;stroke:#C8EFFF;stroke-width:6;stroke-miterlimit:10;" x1="97.139" y1="542.687" x2="243.635" y2="396.191"/>
							
								<line style="fill:none;stroke:#C8EFFF;stroke-width:6;stroke-miterlimit:10;" x1="97.139" y1="528.335" x2="243.635" y2="381.839"/>
							
								<line style="fill:none;stroke:#C8EFFF;stroke-width:6;stroke-miterlimit:10;" x1="97.139" y1="513.983" x2="243.635" y2="367.487"/>
							
								<line style="fill:none;stroke:#C8EFFF;stroke-width:6;stroke-miterlimit:10;" x1="97.139" y1="499.631" x2="243.635" y2="353.135"/>
							
								<line style="fill:none;stroke:#C8EFFF;stroke-width:6;stroke-miterlimit:10;" x1="97.139" y1="485.279" x2="243.635" y2="338.783"/>
							
								<line style="fill:none;stroke:#C8EFFF;stroke-width:6;stroke-miterlimit:10;" x1="97.139" y1="470.927" x2="243.635" y2="324.431"/>
							
								<line style="fill:none;stroke:#C8EFFF;stroke-width:6;stroke-miterlimit:10;" x1="97.139" y1="456.575" x2="243.635" y2="310.079"/>
						</g>
					</g>
				</g>
				<g>
					<g>
						
							<line style="fill:none;stroke:#00528C;stroke-width:2;stroke-miterlimit:10;" x1="536.891" y1="145.4" x2="530.292" y2="152"/>
						
							<line style="fill:none;stroke:#00528C;stroke-width:2;stroke-miterlimit:10;" x1="530.292" y1="145.4" x2="536.891" y2="152"/>
					</g>
					<g>
						
							<line style="fill:none;stroke:#00528C;stroke-width:2;stroke-miterlimit:10;" x1="548.433" y1="145.4" x2="541.833" y2="152"/>
						
							<line style="fill:none;stroke:#00528C;stroke-width:2;stroke-miterlimit:10;" x1="541.833" y1="145.4" x2="548.433" y2="152"/>
					</g>
					<g>
						
							<line style="fill:none;stroke:#00528C;stroke-width:2;stroke-miterlimit:10;" x1="559.975" y1="145.4" x2="553.375" y2="152"/>
						
							<line style="fill:none;stroke:#00528C;stroke-width:2;stroke-miterlimit:10;" x1="553.375" y1="145.4" x2="559.975" y2="152"/>
					</g>
					<g>
						
							<line style="fill:none;stroke:#00528C;stroke-width:2;stroke-miterlimit:10;" x1="571.516" y1="145.4" x2="564.917" y2="152"/>
						
							<line style="fill:none;stroke:#00528C;stroke-width:2;stroke-miterlimit:10;" x1="564.917" y1="145.4" x2="571.516" y2="152"/>
					</g>
					<g>
						
							<line style="fill:none;stroke:#00528C;stroke-width:2;stroke-miterlimit:10;" x1="583.058" y1="145.4" x2="576.458" y2="152"/>
						
							<line style="fill:none;stroke:#00528C;stroke-width:2;stroke-miterlimit:10;" x1="576.458" y1="145.4" x2="583.058" y2="152"/>
					</g>
					<g>
						<line style="fill:none;stroke:#00528C;stroke-width:2;stroke-miterlimit:10;" x1="594.6" y1="145.4" x2="588" y2="152"/>
						<line style="fill:none;stroke:#00528C;stroke-width:2;stroke-miterlimit:10;" x1="588" y1="145.4" x2="594.6" y2="152"/>
					</g>
					<g>
						
							<line style="fill:none;stroke:#00528C;stroke-width:2;stroke-miterlimit:10;" x1="606.141" y1="145.4" x2="599.542" y2="152"/>
						
							<line style="fill:none;stroke:#00528C;stroke-width:2;stroke-miterlimit:10;" x1="599.542" y1="145.4" x2="606.141" y2="152"/>
					</g>
				</g>
				<g>
					<g>
						<line style="fill:none;stroke:#00528C;stroke-width:2;stroke-miterlimit:10;" x1="295.4" y1="61.775" x2="302" y2="68.375"/>
						<line style="fill:none;stroke:#00528C;stroke-width:2;stroke-miterlimit:10;" x1="295.4" y1="68.375" x2="302" y2="61.775"/>
					</g>
					<g>
						<line style="fill:none;stroke:#00528C;stroke-width:2;stroke-miterlimit:10;" x1="295.4" y1="50.234" x2="302" y2="56.833"/>
						<line style="fill:none;stroke:#00528C;stroke-width:2;stroke-miterlimit:10;" x1="295.4" y1="56.833" x2="302" y2="50.234"/>
					</g>
					<g>
						<line style="fill:none;stroke:#00528C;stroke-width:2;stroke-miterlimit:10;" x1="295.4" y1="38.692" x2="302" y2="45.292"/>
						<line style="fill:none;stroke:#00528C;stroke-width:2;stroke-miterlimit:10;" x1="295.4" y1="45.292" x2="302" y2="38.692"/>
					</g>
					<g>
						<line style="fill:none;stroke:#00528C;stroke-width:2;stroke-miterlimit:10;" x1="295.4" y1="27.15" x2="302" y2="33.75"/>
						<line style="fill:none;stroke:#00528C;stroke-width:2;stroke-miterlimit:10;" x1="295.4" y1="33.75" x2="302" y2="27.15"/>
					</g>
					<g>
						<line style="fill:none;stroke:#00528C;stroke-width:2;stroke-miterlimit:10;" x1="295.4" y1="15.609" x2="302" y2="22.208"/>
						<line style="fill:none;stroke:#00528C;stroke-width:2;stroke-miterlimit:10;" x1="295.4" y1="22.208" x2="302" y2="15.609"/>
					</g>
					<g>
						<line style="fill:none;stroke:#00528C;stroke-width:2;stroke-miterlimit:10;" x1="295.4" y1="4.067" x2="302" y2="10.667"/>
						<line style="fill:none;stroke:#00528C;stroke-width:2;stroke-miterlimit:10;" x1="295.4" y1="10.667" x2="302" y2="4.067"/>
					</g>
					<g>
						<line style="fill:none;stroke:#00528C;stroke-width:2;stroke-miterlimit:10;" x1="295.4" y1="-7.475" x2="302" y2="-0.875"/>
						<line style="fill:none;stroke:#00528C;stroke-width:2;stroke-miterlimit:10;" x1="295.4" y1="-0.875" x2="302" y2="-7.475"/>
					</g>
				</g>
				<g>
					<g>
						<line style="fill:none;stroke:#00528C;stroke-width:2;stroke-miterlimit:10;" x1="52" y1="509.4" x2="58.6" y2="516"/>
						<line style="fill:none;stroke:#00528C;stroke-width:2;stroke-miterlimit:10;" x1="52" y1="516" x2="58.6" y2="509.4"/>
					</g>
					<g>
						<line style="fill:none;stroke:#00528C;stroke-width:2;stroke-miterlimit:10;" x1="52" y1="497.859" x2="58.6" y2="504.458"/>
						<line style="fill:none;stroke:#00528C;stroke-width:2;stroke-miterlimit:10;" x1="52" y1="504.458" x2="58.6" y2="497.859"/>
					</g>
					<g>
						<line style="fill:none;stroke:#00528C;stroke-width:2;stroke-miterlimit:10;" x1="52" y1="486.317" x2="58.6" y2="492.917"/>
						<line style="fill:none;stroke:#00528C;stroke-width:2;stroke-miterlimit:10;" x1="52" y1="492.917" x2="58.6" y2="486.317"/>
					</g>
					<g>
						<line style="fill:none;stroke:#00528C;stroke-width:2;stroke-miterlimit:10;" x1="52" y1="474.775" x2="58.6" y2="481.375"/>
						<line style="fill:none;stroke:#00528C;stroke-width:2;stroke-miterlimit:10;" x1="52" y1="481.375" x2="58.6" y2="474.775"/>
					</g>
					<g>
						<line style="fill:none;stroke:#00528C;stroke-width:2;stroke-miterlimit:10;" x1="52" y1="463.234" x2="58.6" y2="469.833"/>
						<line style="fill:none;stroke:#00528C;stroke-width:2;stroke-miterlimit:10;" x1="52" y1="469.833" x2="58.6" y2="463.234"/>
					</g>
					<g>
						<line style="fill:none;stroke:#00528C;stroke-width:2;stroke-miterlimit:10;" x1="52" y1="451.692" x2="58.6" y2="458.292"/>
						<line style="fill:none;stroke:#00528C;stroke-width:2;stroke-miterlimit:10;" x1="52" y1="458.292" x2="58.6" y2="451.692"/>
					</g>
					<g>
						<line style="fill:none;stroke:#00528C;stroke-width:2;stroke-miterlimit:10;" x1="52" y1="440.15" x2="58.6" y2="446.75"/>
						<line style="fill:none;stroke:#00528C;stroke-width:2;stroke-miterlimit:10;" x1="52" y1="446.75" x2="58.6" y2="440.15"/>
					</g>
				</g>
				<g>
					<g>
						
							<line style="fill:none;stroke:#00528C;stroke-width:2;stroke-miterlimit:10;" x1="568.216" y1="524.242" x2="574.816" y2="530.841"/>
						
							<line style="fill:none;stroke:#00528C;stroke-width:2;stroke-miterlimit:10;" x1="568.216" y1="530.841" x2="574.816" y2="524.242"/>
					</g>
					<g>
						
							<line style="fill:none;stroke:#00528C;stroke-width:2;stroke-miterlimit:10;" x1="568.216" y1="512.7" x2="574.816" y2="519.3"/>
						
							<line style="fill:none;stroke:#00528C;stroke-width:2;stroke-miterlimit:10;" x1="568.216" y1="519.3" x2="574.816" y2="512.7"/>
					</g>
					<g>
						
							<line style="fill:none;stroke:#00528C;stroke-width:2;stroke-miterlimit:10;" x1="568.216" y1="501.159" x2="574.816" y2="507.758"/>
						
							<line style="fill:none;stroke:#00528C;stroke-width:2;stroke-miterlimit:10;" x1="568.216" y1="507.758" x2="574.816" y2="501.159"/>
					</g>
					<g>
						
							<line style="fill:none;stroke:#00528C;stroke-width:2;stroke-miterlimit:10;" x1="568.216" y1="489.617" x2="574.816" y2="496.216"/>
						
							<line style="fill:none;stroke:#00528C;stroke-width:2;stroke-miterlimit:10;" x1="568.216" y1="496.216" x2="574.816" y2="489.617"/>
					</g>
					<g>
						
							<line style="fill:none;stroke:#00528C;stroke-width:2;stroke-miterlimit:10;" x1="568.216" y1="478.075" x2="574.816" y2="484.675"/>
						
							<line style="fill:none;stroke:#00528C;stroke-width:2;stroke-miterlimit:10;" x1="568.216" y1="484.675" x2="574.816" y2="478.075"/>
					</g>
					<g>
						
							<line style="fill:none;stroke:#00528C;stroke-width:2;stroke-miterlimit:10;" x1="568.216" y1="466.534" x2="574.816" y2="473.133"/>
						
							<line style="fill:none;stroke:#00528C;stroke-width:2;stroke-miterlimit:10;" x1="568.216" y1="473.133" x2="574.816" y2="466.534"/>
					</g>
					<g>
						
							<line style="fill:none;stroke:#00528C;stroke-width:2;stroke-miterlimit:10;" x1="568.216" y1="454.992" x2="574.816" y2="461.591"/>
						
							<line style="fill:none;stroke:#00528C;stroke-width:2;stroke-miterlimit:10;" x1="568.216" y1="461.591" x2="574.816" y2="454.992"/>
					</g>
				</g>
				<g>
					<polygon style="fill:#FFDFEC;" points="371.559,30.413 363.073,21.928 347.929,37.072 332.785,21.928 324.3,30.413 
						339.444,45.557 324.3,60.702 332.785,69.186 347.929,54.042 363.073,69.186 371.559,60.702 356.414,45.557 					"/>
					<polygon style="fill:none;stroke:#00528C;stroke-miterlimit:10;" points="371.559,24.413 363.073,15.929 347.929,31.073 
						332.785,15.929 324.3,24.413 339.444,39.557 324.3,54.702 332.785,63.186 347.929,48.042 363.073,63.186 371.559,54.702 
						356.414,39.557 					"/>
				</g>
				<g>
					<polygon style="fill:#C8EFFF;" points="130.559,443.413 122.073,434.928 106.929,450.073 91.785,434.928 83.3,443.413 
						98.444,458.557 83.3,473.702 91.785,482.186 106.929,467.042 122.073,482.186 130.559,473.702 115.414,458.557 					"/>
					<polygon style="fill:none;stroke:#00528C;stroke-miterlimit:10;" points="130.559,437.413 122.073,428.928 106.929,444.073 
						91.785,428.928 83.3,437.413 98.444,452.557 83.3,467.702 91.785,476.186 106.929,461.042 122.073,476.186 130.559,467.702 
						115.414,452.557 					"/>
				</g>
				<g>
					<polygon style="fill:#00528C;" points="553.833,253.496 549.524,249.188 541.833,256.879 534.143,249.188 529.833,253.496 
						537.524,261.187 529.833,268.879 534.143,273.187 541.833,265.496 549.524,273.187 553.833,268.879 546.142,261.187 					"/>
				</g>
				<g>
					<polygon style="fill:#00528C;" points="221.75,217.958 217.8,214.009 210.75,221.059 203.7,214.009 199.75,217.958 
						206.8,225.008 199.75,232.059 203.7,236.008 210.75,228.958 217.8,236.008 221.75,232.059 214.7,225.008 					"/>
				</g>
				<g>
					<polygon style="fill:#00528C;" points="294.419,470.949 290.426,466.956 283.3,474.082 276.173,466.956 272.181,470.949 
						279.307,478.075 272.181,485.202 276.173,489.194 283.3,482.068 290.426,489.194 294.419,485.202 287.293,478.075 					"/>
				</g>
				<g>
					<polygon style="fill:#C8EFFF;" points="532.906,207.399 518.872,193.097 532.906,178.796 					"/>
					<polygon style="fill:#C8EFFF;" points="518.711,207.399 504.677,193.097 518.711,178.796 					"/>
					<polygon style="fill:#C8EFFF;" points="504.517,207.399 490.483,193.097 504.517,178.796 					"/>
					<polygon style="fill:#C8EFFF;" points="490.322,207.399 476.288,193.097 490.322,178.796 					"/>
				</g>
				<g>
					<g>
						<polygon style="fill:#FFDFEC;" points="342.39,476.546 356.691,462.512 370.992,476.546 						"/>
						<polygon style="fill:#FFDFEC;" points="342.39,462.351 356.691,448.317 370.992,462.351 						"/>
						<polygon style="fill:#FFDFEC;" points="342.39,448.156 356.691,434.122 370.992,448.156 						"/>
						<polygon style="fill:#FFDFEC;" points="342.39,433.962 356.691,419.928 370.992,433.962 						"/>
					</g>
				</g>
				<g>
					<g>
						<line style="fill:none;stroke:#00528C;stroke-width:2;stroke-miterlimit:10;" x1="217.35" y1="387" x2="210.75" y2="393.6"/>
						<line style="fill:none;stroke:#00528C;stroke-width:2;stroke-miterlimit:10;" x1="210.75" y1="387" x2="217.35" y2="393.6"/>
					</g>
					<g>
						
							<line style="fill:none;stroke:#00528C;stroke-width:2;stroke-miterlimit:10;" x1="228.891" y1="387" x2="222.292" y2="393.6"/>
						
							<line style="fill:none;stroke:#00528C;stroke-width:2;stroke-miterlimit:10;" x1="222.292" y1="387" x2="228.891" y2="393.6"/>
					</g>
					<g>
						
							<line style="fill:none;stroke:#00528C;stroke-width:2;stroke-miterlimit:10;" x1="240.433" y1="387" x2="233.833" y2="393.6"/>
						
							<line style="fill:none;stroke:#00528C;stroke-width:2;stroke-miterlimit:10;" x1="233.833" y1="387" x2="240.433" y2="393.6"/>
					</g>
					<g>
						
							<line style="fill:none;stroke:#00528C;stroke-width:2;stroke-miterlimit:10;" x1="251.975" y1="387" x2="245.375" y2="393.6"/>
						
							<line style="fill:none;stroke:#00528C;stroke-width:2;stroke-miterlimit:10;" x1="245.375" y1="387" x2="251.975" y2="393.6"/>
					</g>
					<g>
						
							<line style="fill:none;stroke:#00528C;stroke-width:2;stroke-miterlimit:10;" x1="263.516" y1="387" x2="256.917" y2="393.6"/>
						
							<line style="fill:none;stroke:#00528C;stroke-width:2;stroke-miterlimit:10;" x1="256.917" y1="387" x2="263.516" y2="393.6"/>
					</g>
					<g>
						
							<line style="fill:none;stroke:#00528C;stroke-width:2;stroke-miterlimit:10;" x1="275.058" y1="387" x2="268.458" y2="393.6"/>
						
							<line style="fill:none;stroke:#00528C;stroke-width:2;stroke-miterlimit:10;" x1="268.458" y1="387" x2="275.058" y2="393.6"/>
					</g>
					<g>
						<line style="fill:none;stroke:#00528C;stroke-width:2;stroke-miterlimit:10;" x1="286.6" y1="387" x2="280" y2="393.6"/>
						<line style="fill:none;stroke:#00528C;stroke-width:2;stroke-miterlimit:10;" x1="280" y1="387" x2="286.6" y2="393.6"/>
					</g>
				</g>
			</g>
		</g>
	</g>
</g>
</svg>
