<?xml version="1.0" encoding="UTF-8"?>
<!DOCTYPE svg PUBLIC "-//W3C//DTD SVG 1.1//EN" "http://www.w3.org/Graphics/SVG/1.1/DTD/svg11.dtd">
<svg xmlns="http://www.w3.org/2000/svg" version="1.1" width="512px" height="512px" style="shape-rendering:geometricPrecision; text-rendering:geometricPrecision; image-rendering:optimizeQuality; fill-rule:evenodd; clip-rule:evenodd" xmlns:xlink="http://www.w3.org/1999/xlink">
<g><path style="opacity:1" fill="#2195f2" d="M 30.5,-0.5 C 180.5,-0.5 330.5,-0.5 480.5,-0.5C 496.5,4.16667 506.833,14.5 511.5,30.5C 511.5,114.833 511.5,199.167 511.5,283.5C 506.167,278.5 500.833,273.5 495.5,268.5C 486.833,259.167 477.833,250.167 468.5,241.5C 459.833,232.167 450.833,223.167 441.5,214.5C 430.833,203.167 419.833,192.167 408.5,181.5C 400.167,172.5 391.5,163.833 382.5,155.5C 371.5,143.833 360.167,132.5 348.5,121.5C 286.669,120.501 224.669,120.168 162.5,120.5C 162.5,210.167 162.5,299.833 162.5,389.5C 162.5,390.167 162.833,390.5 163.5,390.5C 180.167,407.833 197.167,424.833 214.5,441.5C 223.167,450.833 232.167,459.833 241.5,468.5C 250.167,477.833 259.167,486.833 268.5,495.5C 273.5,500.833 278.5,506.167 283.5,511.5C 199.167,511.5 114.833,511.5 30.5,511.5C 14.5,506.833 4.16667,496.5 -0.5,480.5C -0.5,330.5 -0.5,180.5 -0.5,30.5C 4.16667,14.5 14.5,4.16667 30.5,-0.5 Z"/></g>
<g><path style="opacity:1" fill="#fefefe" d="M 348.5,121.5 C 348.5,137.833 348.5,154.167 348.5,170.5C 307.997,170.168 267.663,170.501 227.5,171.5C 227.5,190.167 227.5,208.833 227.5,227.5C 236.833,227.5 246.167,227.5 255.5,227.5C 274.167,227.5 292.833,227.5 311.5,227.5C 317.5,227.5 323.5,227.5 329.5,227.5C 329.5,243.5 329.5,259.5 329.5,275.5C 295.329,275.168 261.329,275.502 227.5,276.5C 227.5,297.5 227.5,318.5 227.5,339.5C 267.33,340.499 307.33,340.832 347.5,340.5C 347.5,356.833 347.5,373.167 347.5,389.5C 285.833,389.5 224.167,389.5 162.5,389.5C 162.5,299.833 162.5,210.167 162.5,120.5C 224.669,120.168 286.669,120.501 348.5,121.5 Z"/></g>
<g><path style="opacity:1" fill="#1a79c4" d="M 382.5,155.5 C 391.5,163.833 400.167,172.5 408.5,181.5C 382.868,207.632 357.035,233.632 331,259.5C 330.83,248.659 330.33,237.992 329.5,227.5C 323.5,227.5 317.5,227.5 311.5,227.5C 335.167,203.5 358.833,179.5 382.5,155.5 Z"/></g>
<g><path style="opacity:1" fill="#1871b8" d="M 227.5,171.5 C 255.169,171.333 282.835,171.5 310.5,172C 291.965,190.368 273.632,208.868 255.5,227.5C 246.167,227.5 236.833,227.5 227.5,227.5C 227.5,208.833 227.5,190.167 227.5,171.5 Z"/></g>
<g><path style="opacity:1" fill="#1e77bf" d="M 348.5,121.5 C 360.167,132.5 371.5,143.833 382.5,155.5C 358.833,179.5 335.167,203.5 311.5,227.5C 292.833,227.5 274.167,227.5 255.5,227.5C 273.632,208.868 291.965,190.368 310.5,172C 282.835,171.5 255.169,171.333 227.5,171.5C 267.663,170.501 307.997,170.168 348.5,170.5C 348.5,154.167 348.5,137.833 348.5,121.5 Z"/></g>
<g><path style="opacity:1" fill="#1c7dcb" d="M 408.5,181.5 C 419.833,192.167 430.833,203.167 441.5,214.5C 400.167,256.167 358.833,297.833 317.5,339.5C 295.5,339.5 273.5,339.5 251.5,339.5C 271.965,318.535 292.632,297.701 313.5,277C 284.835,276.5 256.169,276.333 227.5,276.5C 261.329,275.502 295.329,275.168 329.5,275.5C 329.5,259.5 329.5,243.5 329.5,227.5C 330.33,237.992 330.83,248.659 331,259.5C 357.035,233.632 382.868,207.632 408.5,181.5 Z"/></g>
<g><path style="opacity:1" fill="#1c80d1" d="M 441.5,214.5 C 450.833,223.167 459.833,232.167 468.5,241.5C 428.833,281.833 388.833,321.833 348.5,361.5C 348.5,354.167 348.5,346.833 348.5,339.5C 338.167,339.5 327.833,339.5 317.5,339.5C 358.833,297.833 400.167,256.167 441.5,214.5 Z"/></g>
<g><path style="opacity:1" fill="#1d84d7" d="M 468.5,241.5 C 477.833,250.167 486.833,259.167 495.5,268.5C 420.167,344.5 344.5,420.167 268.5,495.5C 259.167,486.833 250.167,477.833 241.5,468.5C 267.833,442.833 293.833,416.833 319.5,390.5C 329.167,390.5 338.833,390.5 348.5,390.5C 348.5,380.833 348.5,371.167 348.5,361.5C 388.833,321.833 428.833,281.833 468.5,241.5 Z"/></g>
<g><path style="opacity:1" fill="#1d87dc" d="M 495.5,268.5 C 500.833,273.5 506.167,278.5 511.5,283.5C 511.5,286.833 511.5,290.167 511.5,293.5C 438.5,365.833 365.833,438.5 293.5,511.5C 290.167,511.5 286.833,511.5 283.5,511.5C 278.5,506.167 273.5,500.833 268.5,495.5C 344.5,420.167 420.167,344.5 495.5,268.5 Z"/></g>
<g><path style="opacity:1" fill="#1a78c4" d="M 227.5,276.5 C 256.169,276.333 284.835,276.5 313.5,277C 292.632,297.701 271.965,318.535 251.5,339.5C 243.5,339.5 235.5,339.5 227.5,339.5C 227.5,318.5 227.5,297.5 227.5,276.5 Z"/></g>
<g><path style="opacity:1" fill="#1e89df" d="M 511.5,293.5 C 511.5,302.167 511.5,310.833 511.5,319.5C 447.167,383.167 383.167,447.167 319.5,511.5C 310.833,511.5 302.167,511.5 293.5,511.5C 365.833,438.5 438.5,365.833 511.5,293.5 Z"/></g>
<g><path style="opacity:1" fill="#1e8ce3" d="M 511.5,319.5 C 511.5,336.167 511.5,352.833 511.5,369.5C 463.833,416.5 416.5,463.833 369.5,511.5C 352.833,511.5 336.167,511.5 319.5,511.5C 383.167,447.167 447.167,383.167 511.5,319.5 Z"/></g>
<g><path style="opacity:1" fill="#aed4f4" d="M 227.5,339.5 C 235.5,339.5 243.5,339.5 251.5,339.5C 273.5,339.5 295.5,339.5 317.5,339.5C 327.833,339.5 338.167,339.5 348.5,339.5C 348.5,346.833 348.5,354.167 348.5,361.5C 348.5,371.167 348.5,380.833 348.5,390.5C 338.833,390.5 329.167,390.5 319.5,390.5C 301.5,390.5 283.5,390.5 265.5,390.5C 231.5,390.5 197.5,390.5 163.5,390.5C 162.833,390.5 162.5,390.167 162.5,389.5C 224.167,389.5 285.833,389.5 347.5,389.5C 347.5,373.167 347.5,356.833 347.5,340.5C 307.33,340.832 267.33,340.499 227.5,339.5 Z"/></g>
<g><path style="opacity:1" fill="#1b7dcb" d="M 163.5,390.5 C 197.5,390.5 231.5,390.5 265.5,390.5C 248.833,407.833 231.833,424.833 214.5,441.5C 197.167,424.833 180.167,407.833 163.5,390.5 Z"/></g>
<g><path style="opacity:1" fill="#1c81d1" d="M 265.5,390.5 C 283.5,390.5 301.5,390.5 319.5,390.5C 293.833,416.833 267.833,442.833 241.5,468.5C 232.167,459.833 223.167,450.833 214.5,441.5C 231.833,424.833 248.833,407.833 265.5,390.5 Z"/></g>
<g><path style="opacity:1" fill="#1f8fe8" d="M 511.5,369.5 C 511.5,382.167 511.5,394.833 511.5,407.5C 476.5,441.833 441.833,476.5 407.5,511.5C 394.833,511.5 382.167,511.5 369.5,511.5C 416.5,463.833 463.833,416.5 511.5,369.5 Z"/></g>
<g><path style="opacity:1" fill="#2092ed" d="M 511.5,407.5 C 511.5,431.833 511.5,456.167 511.5,480.5C 506.868,496.465 496.535,506.798 480.5,511.5C 456.167,511.5 431.833,511.5 407.5,511.5C 441.833,476.5 476.5,441.833 511.5,407.5 Z"/></g>
</svg>
