<?xml version="1.0" encoding="utf-8"?>
<!-- Generator: Adobe Illustrator 27.5.0, SVG Export Plug-In . SVG Version: 6.00 Build 0)  -->
<svg version="1.1" xmlns="http://www.w3.org/2000/svg" xmlns:xlink="http://www.w3.org/1999/xlink" x="0px" y="0px"
	 viewBox="0 0 500 500" style="enable-background:new 0 0 500 500;" xml:space="preserve">
<g id="Floor">
	<ellipse id="Floor_9_" style="fill:#F5F5F5;" cx="249.531" cy="352.946" rx="228.78" ry="132.086"/>
</g>
<g id="Shadows">
	<ellipse id="Shadow_3_" style="fill:#E6E6E6;" cx="333.251" cy="420.203" rx="62.029" ry="35.813"/>
	<ellipse id="Shadow_27_" style="fill:#E6E6E6;" cx="153.174" cy="396.574" rx="60.812" ry="35.11"/>
</g>
<g id="Genius">
	<g id="Genie">
		<g>
			<path style="fill:#27DEBF;" d="M188.646,91.541c0,0,10.028-3.368,16.639-0.692c5.441,2.203,9.081,5.441,11.467,10.116
				c8.568,7.913,25.305,23.965,30.178,31.586c1.269,1.984,2.62,3.254,2.495,5.217c-0.095,1.491-0.812,2.478-2.301,4.359
				l-17.642-2.184c-5.797-4.683-18.368-13.716-25.988-21.74l-0.541,4.479c-5.849-2.319-11.079-8.224-12.582-15.394
				C187.471,93.447,188.646,91.541,188.646,91.541z"/>
			<path style="opacity:0.15;" d="M227.908,138.692c1.972-2.341,7.012-4.223,9.668-3.882c0,0-4.751-2.189-11.862,2.175
				L227.908,138.692z"/>
		</g>
		<g id="Character_5_">
			<path style="fill:#27DEBF;" d="M201.399,247.339c-38.257-0.651-53.604,46.84-75.019,32.033
				c-19.84-13.718,2.745-37.266,35.96-53.477c31.044-15.152,39.821-40.41,42.098-53.568c2.51-14.501,3.099-36.159-1.289-62.264
				c-1.606-9.555-9.924-18-22.069-19.362l-16.327-0.372c0,0-4.22,0.677-11.517,2.166c-7.297,1.489-11.091,4.9-11.766,10.703
				c-0.452,3.891-0.308,6.119,0.593,9.887l1.91,13.832c0,0,5.541,15.531,5.978,21.476c0.447,6.078-0.013,14.389-3.699,23.142
				c-6.247,14.834-30.615,29.394-52.954,56.094c-20.859,24.932-15.659,66.693,12.931,78.307c24.39,9.909,49.804,4.263,68.598-15.671
				c25.771-27.334,49.014-21.089,46.164-8.74c-4.199,18.194-31.19,13.396-50.167,28.039c-19.49,15.039-14.408,34.327-6.067,41.853
				c7.85,7.083,19.038,5.187,19.038,5.187s-20.295-2.883-18.386-20.464c1.783-16.422,15.995-20.818,48.184-28.423
				C249.983,299.122,248.384,248.139,201.399,247.339z"/>
			<path style="opacity:0.1;" d="M186.145,160.36c-0.062,0.313-0.154,0.625-0.335,0.887c-0.209,0.303-0.524,0.519-0.853,0.684
				c-1.751,0.874-3.889,0.414-5.746,1.03c-1.506,0.499,1.028,1.064,1.456,1.115c0.996,0.118,2.006,0.068,3.004,0.019
				c0.434-0.021,0.868-0.043,1.297-0.111c1.035-0.166,1.959-0.875,2.952-1.027c0.858-0.131,1.883,0.395,2.687,0.628
				c1.832,0.53,5.573,0.898,6.755-1.08c0.095-0.16,0.169-0.351,0.116-0.529c-0.067-0.227-0.321-0.354-0.557-0.359
				c-0.236-0.006-0.463,0.081-0.689,0.151c-1.855,0.569-5.828,0.904-5.812-1.934c0.008-1.386-0.051-2.797,0.215-4.15
				c0.073-0.371,0.49-0.554,0.858-0.641c1.291-0.304,2.648-0.166,3.953-0.402c0.257-0.047,0.519-0.111,0.733-0.262
				c0.214-0.151,0.371-0.406,0.339-0.666c-0.007-0.056-0.025-0.116-0.07-0.151c-0.052-0.041-0.124-0.04-0.191-0.037
				c-1.228,0.055-2.46,0.049-3.688-0.017c-0.584-0.031-1.182-0.08-1.715-0.323c-0.936-0.427-1.396-1.547-1.56-2.495
				c-0.205-1.182-0.494-3.179,0.539-4.098c0.435-0.387,1.066-0.433,1.647-0.458c1.066-0.046,2.147-0.091,3.161-0.422
				c0.205-0.067,0.413-0.15,0.568-0.301c0.154-0.151,0.245-0.386,0.17-0.589c-1.371,0.003-2.748,0.005-4.106-0.188
				c-0.34-0.048-0.686-0.111-0.986-0.278c-0.891-0.495-1.195-2.346-1.325-3.284c-0.183-1.321-0.012-2.716-0.405-4.005
				c-0.082-0.269-0.242-0.58-0.523-0.588c-0.365-0.011-0.505,0.467-0.528,0.831c-0.077,1.171-0.154,2.341-0.231,3.512
				c-0.047,0.708-0.095,1.426-0.316,2.101c-0.75,2.283-3.053,2.019-5.009,2.303c-0.691,0.1-1.532,0.831-1.03,1.317
				c0.172,0.166,0.433,0.189,0.672,0.203c1.265,0.072,2.53,0.143,3.796,0.215c0.253,0.014,0.527,0.037,0.715,0.206
				c0.161,0.144,0.224,0.366,0.277,0.575c0.262,1.046,0.43,2.115,0.504,3.191c0.091,1.336-0.861,2.362-2.124,2.78
				c-0.779,0.258-1.613,0.279-2.433,0.298c-0.644,0.015-1.288,0.029-1.932,0.044c-0.299,0.007-0.68,0.077-0.741,0.37
				c-0.039,0.189,0.095,0.379,0.266,0.468c0.171,0.09,0.37,0.102,0.562,0.115c1.448,0.097,3.314,0.075,4.532,1.014
				C186.186,156.921,186.412,158.988,186.145,160.36z"/>
			<path style="opacity:0.1;" d="M165.874,133.45c-0.008,0.058-0.002,0.12,0.021,0.184c0.048,0.132,0.161,0.229,0.272,0.315
				c2.275,1.783,5.575,1.839,8.38,1.84c3.322,0.001,6.641-0.661,9.697-1.967c0.877-0.374,1.738-0.802,2.662-1.036
				c2.266-0.575,3.938,0.409,6.049,0.946c3.167,0.806,6.528,0.835,9.708,0.084c1.741-0.411,3.76-1.524,3.638-3.309
				c0.037,0.546-11.203,0.624-12.012,0.577c-1.079-0.063-2.212-0.173-3.106-0.78c-0.87-0.591-1.394-1.583-1.679-2.595
				c-0.285-1.012-0.364-2.07-0.541-3.106c-0.105-0.61-2.171-7.521-3.136-6.323c-0.106,0.134-0.108,0.32-0.104,0.49
				c0.057,2.433,1.374,6.982,0.669,9.775c-0.708,2.805-4.588,3.693-7.04,4.079c-3.236,0.509-6.534,0.623-9.797,0.337
				c-0.933-0.082-1.872-0.196-2.803-0.096C166.379,132.906,165.917,133.129,165.874,133.45z"/>
			<g>
				<path style="fill:#455A64;" d="M160.194,91.109c0.31,1.038,0.906,5.912,3.988,9.34c4.357,4.846,7.169,5.804,10.645,7.365
					c2.037,0.915,5.601,30.34,3.776,48.865c0,0-16.782,3.356-29.972-0.513c0,0-0.924-11.254-1.935-17.939
					c-0.732-4.844-7.591-27.741-7.391-34.6c0.171-5.844,2.378-9.134,9.144-10.541C155.263,91.67,160.194,91.109,160.194,91.109z"/>
			</g>
			<path style="fill:#FAFAFA;" d="M173.231,110.492c-0.021-0.191-0.151-0.354-0.334-0.416c-1.995-0.69-6.896-3.304-9.725-6.497
				c-2.742-3.095-4.791-5.865-5.633-12.111c-0.305,0.045-0.638,0.095-0.987,0.149c0.888,6.511,3.103,9.5,5.872,12.625
				c2.819,3.182,7.609,5.813,9.848,6.67c0.124,1.084,0.252,2.183,0.384,3.3c1.221,10.416,2.603,22.209,1.778,38.622
				c-2.197,0.4-13.691,2.214-26.16-0.719c0.034,0.369,0.066,0.719,0.096,1.05c5.277,1.208,10.373,1.594,14.668,1.594
				c7.014,0,11.899-1.001,11.979-1.018c0.222-0.047,0.384-0.237,0.396-0.463c0.871-16.701-0.529-28.644-1.764-39.181
				C173.505,112.873,173.364,111.673,173.231,110.492z"/>
			<path style="opacity:0.15;" d="M162.132,272.398c8.947-12.475,20.637-21.357,20.637-21.357l0,0
				c-25.357,10.755-38.837,40.468-56.389,28.331c-17.551-12.136-1.898-31.963,24.941-47.599
				c-13.448,6.327-39.04,19.935-45.735,35.781c-4.457,10.549,2.694,25.538,19.381,26.676
				C141.628,295.365,153.185,284.873,162.132,272.398z"/>
			<path style="opacity:0.15;" d="M212.528,271.237l-0.014,0.011c6.259,0.999,9.674,5.095,8.478,10.28
				c-4.198,18.194-31.19,13.396-50.167,28.039c-10.681,8.242-13.973,17.757-13.402,25.915c3.246-19.654,23.046-27.696,39.983-30.915
				c16.941-3.22,27.582-9.801,29.542-19.741C228.908,274.885,219.808,272.085,212.528,271.237z"/>
			<path style="opacity:0.15;" d="M205.477,164.808c-0.062-0.007-0.12-0.019-0.188-0.02l-0.213,2.284c0,0-7.163,8.449-28.215,7.683
				c-24.099-0.876-28.483-8.317-28.483-8.317c0.126-0.57,0.254-1.179,0.394-1.939c-0.059-0.02-0.113-0.029-0.169-0.042
				c-0.574,2.303-1.336,4.673-2.35,7.08c-0.237,0.563-0.506,1.125-0.796,1.687l0,0c-0.173,0.338-0.356,0.676-0.547,1.014
				c-0.014,0.025-0.027,0.05-0.042,0.075c-0.185,0.326-0.38,0.653-0.581,0.98c-0.017,0.028-0.034,0.057-0.051,0.085
				c-1.327,2.14-2.992,4.298-4.936,6.507c0.001,0.001,0.002,0.003,0.003,0.005c3.74,2.878,10.077,6.415,16.119,6.596
				c3.909,0.117,7.348-1.427,9.31-3.321c3.427,0.643,7.327,1.103,11.738,1.256c7.348,0.254,12.941-0.655,17.082-1.848
				c1.304,1.128,3.388,2.282,6.539,2.54c0.939-2.251,1.702-4.414,2.335-6.466c0.003-0.002,0.007-0.004,0.009-0.006
				c0.044-0.143,0.079-0.277,0.121-0.419c0.141-0.467,0.273-0.926,0.4-1.38c0.06-0.215,0.123-0.433,0.181-0.645
				c0.171-0.635,0.33-1.257,0.474-1.862c0.047-0.198,0.087-0.384,0.131-0.578c0.095-0.415,0.187-0.825,0.271-1.224
				c0.056-0.266,0.107-0.524,0.158-0.783c0.026-0.133,0.057-0.274,0.082-0.405c-0.002,0.001-0.004,0.003-0.006,0.004
				c0.065-0.342,0.136-0.695,0.193-1.021C204.84,170.007,205.186,167.484,205.477,164.808z"/>
			<g>
				<path style="fill:#27DEBF;" d="M149.247,161.493c-1.61-0.532-1.792,1.357-3.121,5.471c-1.243,3.848-2.103,5.63-0.934,6.758
					c1.698,1.637,11.224,8.982,31.751,9.693c17.035,0.59,24.746-5.057,26.417-6.062c1.914-1.151,2.869-2.487,3.473-9.635
					c0.292-3.464,0.814-5.9-1.07-5.936l-0.092,1.405c0,0-7.284,9.327-28.336,8.562c-24.099-0.876-28.483-8.317-28.483-8.317
					C148.979,162.862,149.107,162.253,149.247,161.493z"/>
				<path style="opacity:0.7;fill:#FFFFFF;" d="M149.247,161.493c-1.61-0.532-1.792,1.357-3.121,5.471
					c-1.243,3.848-2.103,5.63-0.934,6.758c1.698,1.637,11.224,8.982,31.751,9.693c17.035,0.59,24.746-5.057,26.417-6.062
					c1.914-1.151,2.869-2.487,3.473-9.635c0.292-3.464,0.814-5.9-1.07-5.936l-0.092,1.405c0,0-7.284,9.327-28.336,8.562
					c-24.099-0.876-28.483-8.317-28.483-8.317C148.979,162.862,149.107,162.253,149.247,161.493z"/>
			</g>
			<g id="XMLID_296_">
				<g id="XMLID_354_">
					<g>
						<circle style="fill:#263238;" cx="170.825" cy="49.848" r="28.311"/>
						<path style="fill:#37474F;" d="M198.184,38.705c0,0-2.483-13.142-20.333-12.645c-17.292,0.481-25.496,12.645-27.396,20.004
							c-1.521,5.889-2.898,20.824,8.068,23.211L198.184,38.705z"/>
					</g>
					<path id="XMLID_402_" style="fill:#27DEBF;" d="M163.234,63.942c-0.872,1.272-2.286-1.538-3.425-2.779
						c-1.139-1.241-5.028-2.305-6.883,1.766c-1.89,4.149,1.306,8.095,3.964,9.416c4.754,2.363,6.263-1.073,6.263-1.073l0.385,19.767
						c6.699,10.362,23.113,12.606,17.543,0.381v-7.297c0,0,3.432,0.558,5.662,0.199c3.711-0.597,7.329-3.724,8.647-7.85
						c2.002-6.265,2.756-13.021,1.383-25.458c-1.6-14.494-19.839-14.644-28.49-8.792C160.617,47.408,163.234,63.942,163.234,63.942z
						"/>
					<path style="opacity:0.3;" d="M180.429,84.031c0,0-5.829-1.121-10.116-3.059c0,0,1.72,2.231,4.97,3.288
						c3.251,1.057,5.145,1.376,5.145,1.376V84.031z"/>
					<path id="XMLID_817_" style="opacity:0.3;" d="M182.02,74.229l4.068,0.086c0.037,1.191-1.022,2.123-2.146,2.1
						C182.819,76.391,182.057,75.42,182.02,74.229z"/>
					<path style="fill:#27DEBF;" d="M191.859,77.356c-0.015-0.497-0.056-0.991-0.141-1.482c-0.268-1.548-1.124-3.309-2.631-3.993
						c-1.394-0.632-3.317-0.567-4.808-0.491c-2.977,0.152-5.171,0.841-6.316,2.63c-1.739,2.718-2.068,6.489-0.352,9.588
						c2.226,4.018,6.437,4.813,10.504,4.905c1.472,0.033,3.737-0.434,5.089-1.019c1.365-0.59,2.471-2.039,2.133-3.585
						c-0.04-0.185-0.177-0.41-0.357-0.351c0.104,0.339-0.009,0.726-0.254,0.982c-0.768,0.805-2.09,0.127-2.562-0.678
						c-0.437-0.745-0.477-1.653-0.454-2.517C191.745,80.017,191.899,78.68,191.859,77.356z M189.976,79.585
						c-0.411,1.52-2.528,1.759-3.402,1.279c-0.41-0.226-0.667-2.236,0.013-2.556c0.68-0.32,0.32-0.84-1.52-0.694
						c-1.84,0.146-1.84,0.654-1.12,0.814c0.72,0.16,0.949,2.04,0.107,2.4c-0.843,0.36-2.678,0.594-3.625-0.117
						c-1.331-0.999-1.591-4.709-0.438-6.201c1.317-1.705,3.707-1.739,5.263-1.663c1.705,0.083,3.408,0.13,4.579,1.517
						C190.912,75.641,190.374,78.113,189.976,79.585z"/>
					<path style="opacity:0.5;" d="M191.859,77.356c-0.015-0.497-0.056-0.991-0.141-1.482c-0.268-1.548-1.124-3.309-2.631-3.993
						c-1.394-0.632-3.317-0.567-4.808-0.491c-2.977,0.152-5.171,0.841-6.316,2.63c-1.739,2.718-2.068,6.489-0.352,9.588
						c2.226,4.018,6.437,4.813,10.504,4.905c1.472,0.033,3.737-0.434,5.089-1.019c1.365-0.59,2.471-2.039,2.133-3.585
						c-0.04-0.185-0.177-0.41-0.357-0.351c0.104,0.339-0.009,0.726-0.254,0.982c-0.768,0.805-2.09,0.127-2.562-0.678
						c-0.437-0.745-0.477-1.653-0.454-2.517C191.745,80.017,191.899,78.68,191.859,77.356z M189.976,79.585
						c-0.411,1.52-2.528,1.759-3.402,1.279c-0.41-0.226-0.667-2.236,0.013-2.556c0.68-0.32,0.32-0.84-1.52-0.694
						c-1.84,0.146-1.84,0.654-1.12,0.814c0.72,0.16,0.949,2.04,0.107,2.4c-0.843,0.36-2.678,0.594-3.625-0.117
						c-1.331-0.999-1.591-4.709-0.438-6.201c1.317-1.705,3.707-1.739,5.263-1.663c1.705,0.083,3.408,0.13,4.579,1.517
						C190.912,75.641,190.374,78.113,189.976,79.585z"/>
				</g>
				<g id="XMLID_298_">
					<path id="XMLID_348_" style="fill:#263238;" d="M176.365,55.153l-3.551,2.041c-0.523-1.063-0.153-2.381,0.828-2.944
						C174.622,53.686,175.842,54.09,176.365,55.153z"/>
					<path id="XMLID_331_" style="fill:#263238;" d="M194.235,57.333l-3.238-2.598c0.661-0.966,1.921-1.167,2.815-0.45
						C194.706,55.003,194.895,56.368,194.235,57.333z"/>
					<path id="XMLID_330_" style="fill:#263238;" d="M192.656,61.63c0,0.992-0.743,1.794-1.66,1.791
						c-0.917-0.003-1.66-0.809-1.66-1.801s0.743-1.794,1.66-1.792C191.913,59.832,192.656,60.638,192.656,61.63z"/>
					<path id="XMLID_352_" style="fill:#263238;" d="M178.604,62.151c0,0.992-0.743,1.794-1.66,1.791
						c-0.917-0.003-1.66-0.809-1.66-1.801c0-0.992,0.743-1.794,1.66-1.792C177.861,60.352,178.604,61.159,178.604,62.151z"/>
					<polygon id="XMLID_299_" style="opacity:0.3;" points="183.538,59.035 183.731,69.519 189.681,68.154 					"/>
				</g>
			</g>
		</g>
		<g>
			<path style="fill:#455A64;" d="M159.809,61.163c0,0,6.644-13.786,19.555-15.584c12.911-1.798,17.532,3.789,17.665,8.143
				c0,0,3.366-1.985,4.151-6.204c1.163-6.255-3.028-17.185-21.816-15.733c-13.716,1.06-21.598,9.383-24.287,17.391
				c-1.22,3.634-0.977,9.594-0.088,11.359C156.442,59.658,158.887,60.091,159.809,61.163z"/>
			<g>
				<path style="fill:#37474F;" d="M189.676,39.409c0,0.275-0.064,0.551-0.191,0.805l-1.409,2.807
					c-0.127,0.265-0.328,0.487-0.572,0.657c-0.233,0.159-0.519,0.265-0.816,0.297l-0.032,0.011l-1.822,0.106l-0.636,0.032
					c-0.35,0.021-0.678-0.064-0.964-0.222c-0.265-0.159-0.498-0.371-0.657-0.646c0-0.011-0.011-0.032-0.021-0.042l-1.314-2.468
					c-0.137-0.244-0.201-0.53-0.201-0.805c-0.011-0.212,0.032-0.413,0.096-0.614l1.504-2.998c0.138-0.275,0.328-0.498,0.572-0.657
					c0.244-0.169,0.54-0.275,0.847-0.307h0.032l0.72-0.042l1.695-0.095c0.35-0.021,0.678,0.063,0.975,0.222
					c0.275,0.159,0.508,0.403,0.667,0.689l1.324,2.468C189.612,38.858,189.676,39.133,189.676,39.409z"/>
				<g>
					<path style="fill:#27DEBF;" d="M189.676,39.206c0,0.243-0.056,0.486-0.168,0.71l-1.243,2.477
						c-0.112,0.234-0.29,0.43-0.505,0.579c-0.206,0.14-0.458,0.234-0.72,0.262l-0.028,0.009l-1.608,0.093l-0.561,0.028
						c-0.309,0.019-0.598-0.056-0.851-0.196c-0.234-0.14-0.439-0.327-0.58-0.57c0-0.009-0.009-0.028-0.019-0.038l-1.159-2.178
						c-0.121-0.215-0.178-0.467-0.178-0.71c-0.009-0.187,0.028-0.364,0.084-0.542l1.327-2.645c0.122-0.243,0.29-0.439,0.505-0.579
						c0.215-0.15,0.477-0.243,0.748-0.271h0.028l0.636-0.037l1.495-0.084c0.309-0.019,0.598,0.056,0.86,0.196
						c0.243,0.14,0.449,0.355,0.589,0.608l1.168,2.178C189.62,38.72,189.676,38.963,189.676,39.206z"/>
					<path style="opacity:0.7;fill:#FFFFFF;" d="M189.676,39.206c0,0.243-0.056,0.486-0.168,0.71l-1.243,2.477
						c-0.112,0.234-0.29,0.43-0.505,0.579c-0.206,0.14-0.458,0.234-0.72,0.262l-0.028,0.009l-1.608,0.093l-0.561,0.028
						c-0.309,0.019-0.598-0.056-0.851-0.196c-0.234-0.14-0.439-0.327-0.58-0.57c0-0.009-0.009-0.028-0.019-0.038l-1.159-2.178
						c-0.121-0.215-0.178-0.467-0.178-0.71c-0.009-0.187,0.028-0.364,0.084-0.542l1.327-2.645c0.122-0.243,0.29-0.439,0.505-0.579
						c0.215-0.15,0.477-0.243,0.748-0.271h0.028l0.636-0.037l1.495-0.084c0.309-0.019,0.598,0.056,0.86,0.196
						c0.243,0.14,0.449,0.355,0.589,0.608l1.168,2.178C189.62,38.72,189.676,38.963,189.676,39.206z"/>
					<polygon style="opacity:0.5;fill:#27DEBF;" points="186.612,37.952 185.118,38.042 184.371,39.529 185.118,40.928 
						186.612,40.838 187.359,39.35 					"/>
					<path style="opacity:0.5;fill:#FFFFFF;" d="M189.676,39.206l-2.318,0.14l-0.748-1.393l1.131-2.243
						c0.243,0.14,0.449,0.355,0.589,0.608l1.168,2.178C189.62,38.72,189.676,38.963,189.676,39.206z"/>
					<path style="opacity:0.5;fill:#FFFFFF;" d="M187.76,42.973c-0.206,0.14-0.458,0.234-0.72,0.262l-0.028,0.009l-1.608,0.093
						l-0.561,0.028c-0.309,0.019-0.598-0.056-0.851-0.196l1.122-2.243l1.495-0.084L187.76,42.973z"/>
					<path style="opacity:0.5;fill:#FFFFFF;" d="M185.114,38.038l-0.748,1.496l-2.309,0.14c-0.009-0.187,0.028-0.364,0.084-0.542
						l1.327-2.645c0.122-0.243,0.29-0.439,0.505-0.579L185.114,38.038z"/>
				</g>
			</g>
		</g>
		<path style="fill:#27DEBF;" d="M248.715,139.936c-1.59,2.191-3.808,8.519-8.952,14.455c-3.914,4.516-11.832,12.646-15.232,15.745
			c-4.396,4.005-6.374,5.42-9.954,8.349c-2.696,2.206-5.29,5.229-11.527,6.194c-3.544,0.549-9.579-0.433-11.372-5.809
			c-1.03-3.09,1.045-3.47,6.775-5.819c5.874-2.408,7.024-3.256,8.381-5.332c0,0,0.443-3.706,0.227-4.71
			c-0.188-0.859-0.613-1.272-1.296-1.226l0.117-1.22c0.421,0.026,1.944,0.748,2.817,1.257c2.252,1.315,4.112,2.533,8.547-3.79
			c3.918-5.585,5.378-13.31,11.037-19.778C233.942,131.784,248.715,139.936,248.715,139.936z"/>
		<g>
			<path style="fill:#27DEBF;" d="M152.356,92.328c0,0-8.619-1.746-14.783,1.843c-5.073,2.954-7.922,6.012-10.345,13.214
				c-7.356,9.05-21.642,27.318-25.383,35.554c-0.974,2.144-2.131,3.593-1.728,5.518c0.306,1.462,1.156,2.337,2.897,3.988
				l17.152-4.669c5.072-5.459,16.232-16.188,22.634-25.213l1.172,4.356c5.46-3.126,9.798-9.715,10.266-17.026
				C155.144,95.781,152.356,92.328,152.356,92.328z"/>
			<path style="fill:#27DEBF;" d="M101.129,150.503c1.886,1.942,4.936,6.395,10.872,11.54c4.516,3.914,14.424,9.791,18.164,11.976
				c5.135,2.999,7.08,4.459,11.04,6.85c2.982,1.8,9.585,5.264,15.895,5.333c3.586,0.039,8.229-2.263,11.085-7.738
				c1.461-2.8-3.07-4.622-9.179-5.64c-7.621-1.27-9.09-2.922-10.965-3.935c-1.261-0.681-1.839-2.176-1.407-3.542l0.753-2.377
				c-0.289-0.207-1.047,0.032-2.749,1.384c-2.042,1.622-3.234,2.45-9.054-2.626c-5.412-4.719-7.46-9.822-13.981-15.42
				C115.082,140.709,101.129,150.503,101.129,150.503z"/>
			<path style="opacity:0.15;" d="M142.801,122.563l1.172,4.356c0.964-0.552,1.89-1.217,2.768-1.969
				c-0.156-1.125-0.223-2.714,0.238-4.282c0.846-2.878,0.339-4.063,0.339-4.063C145.461,119.781,142.801,122.563,142.801,122.563z"
				/>
			<path style="opacity:0.15;" d="M121.603,146.307c-3.62-2.097-7.806-1.697-9.976-0.954c0,0,4.031-4.358,12.07-1.266
				L121.603,146.307z"/>
		</g>
		<g>
			<path style="fill:#455A64;" d="M182.494,90.896c2.219,1.584,7.513,5.299,8.929,8.834c0.945,2.357,0.719,5.323-1.028,6.761
				c-0.857,0.705,2.573,5.804,4.233,22.699c1.118,11.382,1.055,25.494,1.055,25.494s7.698-0.681,11.843-3.633
				c0.08-0.998,5.336-27.951,0.899-41.483c-3.362-10.763-12.55-16.912-17.753-18.602C190.673,90.965,185.628,90.714,182.494,90.896z
				"/>
		</g>
		<path style="fill:#FAFAFA;" d="M208.147,147.204c-2.919,1.081-6.611,2.079-8.074,2.459c0.599-25.605-4.639-40.402-5.415-42.445
			c0.937-1.576,1.464-4.023,1.237-5.822c-0.484-3.84-3.36-7.513-8.175-10.535c-0.631-0.015-1.317-0.026-2.011-0.03
			c5.45,3.016,8.702,6.783,9.194,10.69c0.208,1.65-0.328,4.01-1.22,5.372c-0.091,0.138-0.107,0.313-0.044,0.465
			c0.061,0.149,6.169,15.226,5.417,42.94c-0.004,0.156,0.064,0.305,0.187,0.403c0.09,0.072,0.2,0.11,0.313,0.11
			c0.04,0,0.081-0.005,0.12-0.015c0.255-0.063,4.659-1.164,8.29-2.463C208.024,147.984,208.083,147.612,208.147,147.204z"/>
		<path style="fill:#27DEBF;" d="M182.598,378.466c1.027-4.713,3.766-8.144,13.038-6.576c12.965,2.192,21.266,0.065,24.363-6.576
			c3.609-7.739-0.696-17.082-18.43-15.345c-16.152,1.582-26.669,0.653-30.562-5.868c0,0,0.576,6.521,12.102,9.775
			c14.582,4.117,23.298-0.478,28.024,5.499c1.147,1.451,1.074,5.939-3.005,7.578c-2.453,0.986-6.865,1.065-11.697,0.553
			C183.626,366.149,181.433,375.008,182.598,378.466z"/>
	</g>
</g>
<g id="Lamp_1_">
	<g id="Lamp">
		<g>
			<g>
				<path style="fill:#27DEBF;" d="M101.092,371.84c-0.55,0.039-1.53-0.173-1.984-0.375c-2.164-0.962-3.363-3.097-3.363-6.083
					c0-1.263,0.569-2.479,1.409-3.056c1.012-0.694,2.06-0.66,2.825-0.307c1.513,0.701,2.417,2.236,2.417,4.11
					c0,1.095-0.624,1.992-1.516,2.182c-0.715,0.151-1.405-0.219-1.719-0.923c-0.193-0.432-0.301-0.762,0.433-1.133
					c0.735-0.371,0.775-0.052,1.016,0.243c0.038-0.083,0.07-0.203,0.07-0.37c0-1.187-0.533-2.322-1.424-2.733
					c-0.292-0.138-0.448-0.08-0.559-0.009c-0.356,0.227-0.62,1.068-0.62,1.719c0,2.299,0.953,4.151,2.489,4.834
					c0.519,0.23,1.043,0.2,1.475-0.082c0.678-0.441,1.067-1.44,1.067-2.742c0-3.526-2.148-6.324-4.226-9.03l-0.282-0.368
					c-1.136-1.484-2.104-2.666-3.128-3.917c-1.042-1.275-2.12-2.593-3.405-4.271c-4.227-5.518-4.396-9.33-3.257-10.919
					c1.726-2.405,4.506-3.76,8.661-1.518c3.919,2.114,8.192,4.693,9.872,6.778c1.973,2.45,0.441,4.117-0.533,6.344
					c-0.411,0.939,0.066,1.424,0.84,2.218c0.657,0.674,0.815,1.407,0.823,1.409c0.45,0.137-0.26,0.801-0.393,1.253
					c-0.131,0.452-0.598,0.717-1.051,0.586c-0.158-0.044-1.566-0.476-2.235-1.889c-0.495-1.047-0.43-2.298,0.191-3.719
					c0.904-2.066,1.082-2.875-0.273-4.558c-1.473-1.827-5.134-3.844-8.758-5.753c-1.739-0.916-4.797-1.568-5.761-0.222
					c-0.696,0.969,0.647,3.58,4.281,8.326c1.268,1.655,2.273,2.901,3.308,4.165c1.033,1.263,2.051,2.659,3.204,4.165l0.281,0.366
					c2.148,2.796,4.255,6.369,4.255,10.478c0,1.921-1.357,3.482-2.548,4.257C102.453,371.636,101.844,371.787,101.092,371.84z"/>
			</g>
			<g>
				<path style="fill:#455A64;" d="M101.092,371.84c-0.55,0.039-1.53-0.173-1.984-0.375c-2.164-0.962-3.363-3.097-3.363-6.083
					c0-1.263,0.569-2.479,1.409-3.056c1.012-0.694,2.06-0.66,2.825-0.307c1.513,0.701,2.417,2.236,2.417,4.11
					c0,1.095-0.624,1.992-1.516,2.182c-0.715,0.151-1.405-0.219-1.719-0.923c-0.193-0.432-0.301-0.762,0.433-1.133
					c0.735-0.371,0.775-0.052,1.016,0.243c0.038-0.083,0.07-0.203,0.07-0.37c0-1.187-0.533-2.322-1.424-2.733
					c-0.292-0.138-0.448-0.08-0.559-0.009c-0.356,0.227-0.62,1.068-0.62,1.719c0,2.299,0.953,4.151,2.489,4.834
					c0.519,0.23,1.043,0.2,1.475-0.082c0.678-0.441,1.067-1.44,1.067-2.742c0-3.526-2.148-6.324-4.226-9.03l-0.282-0.368
					c-1.136-1.484-2.104-2.666-3.128-3.917c-1.042-1.275-2.12-2.593-3.405-4.271c-4.227-5.518-4.396-9.33-3.257-10.919
					c1.726-2.405,4.506-3.76,8.661-1.518c3.919,2.114,8.192,4.693,9.872,6.778c1.973,2.45,0.441,4.117-0.533,6.344
					c-0.411,0.939,0.066,1.424,0.84,2.218c0.657,0.674,0.815,1.407,0.823,1.409c0.45,0.137-0.26,0.801-0.393,1.253
					c-0.131,0.452-0.598,0.717-1.051,0.586c-0.158-0.044-1.566-0.476-2.235-1.889c-0.495-1.047-0.43-2.298,0.191-3.719
					c0.904-2.066,1.082-2.875-0.273-4.558c-1.473-1.827-5.134-3.844-8.758-5.753c-1.739-0.916-4.797-1.568-5.761-0.222
					c-0.696,0.969,0.647,3.58,4.281,8.326c1.268,1.655,2.273,2.901,3.308,4.165c1.033,1.263,2.051,2.659,3.204,4.165l0.281,0.366
					c2.148,2.796,4.255,6.369,4.255,10.478c0,1.921-1.357,3.482-2.548,4.257C102.453,371.636,101.844,371.787,101.092,371.84z"/>
			</g>
			<path style="fill:#263238;" d="M108.475,353.841c-0.008-0.002-0.166-0.735-0.823-1.409c-0.774-0.794-1.251-1.279-0.84-2.218
				c0.637-1.458,1.507-2.676,1.484-4.031l-1.794,1.036c0.068,0.723-0.196,1.474-0.688,2.599c-0.384,0.878-0.529,1.681-0.488,2.421v0
				c0.026,0.458,0.107,0.897,0.296,1.298c0.669,1.413,2.077,1.845,2.235,1.889c0.01,0.003,0.02,0,0.03,0.002
				c0.086-0.094,0.157-0.203,0.195-0.334C108.215,354.643,108.925,353.978,108.475,353.841z"/>
			<path style="fill:#263238;" d="M103.547,370.865c1.015-0.853,1.978-2.209,1.978-3.826c0-4.109-2.107-7.682-4.255-10.478
				l-0.281-0.366c-1.153-1.506-2.172-2.902-3.204-4.165c-1.035-1.264-2.04-2.51-3.307-4.165c-3.629-4.737-4.972-7.347-4.284-8.32
				c-0.886,1.069-1.188,2.587-0.687,3.95c0.581,1.582,1.603,3.443,3.222,5.556c1.284,1.677,2.363,2.996,3.405,4.271
				c1.024,1.251,1.992,2.434,3.128,3.917l0.282,0.369c2.078,2.706,4.182,5.504,4.226,9.03c0.016,1.29,0.007,2.961-0.858,4.038
				c-0.507,0.632-1.236,1.236-2.521,1.122c0.522,0.087,1.117,0.043,1.786-0.138C102.693,371.511,103.141,371.228,103.547,370.865z"
				/>
			<path style="fill:#263238;" d="M103.103,367.382l-0.016,0.014c-0.054,1.158-0.419,2.055-1.045,2.462
				c-0.432,0.281-0.957,0.312-1.475,0.082c-1.536-0.683-2.489-2.535-2.489-4.834c0-0.651,0.264-1.493,0.62-1.719
				c0.111-0.071,0.267-0.129,0.559,0.009c-0.821-0.703-2.166-0.084-2.569,1.017c-0.321,0.875-0.331,1.882,0.067,3.252
				c0.329,1.131,1.949,3.75,4.059,3.373C102.923,370.662,103.103,368.565,103.103,367.382z"/>
			<path style="fill:#263238;" d="M100.61,366.499c-0.207-0.306-0.46-0.366-0.673-0.26s-0.387,0.2-0.471,0.339
				C99.241,366.948,100.214,367.657,100.61,366.499z"/>
		</g>
		<g>
			<path style="opacity:0.1;" d="M90.903,339.021c0.021-0.009,0.042-0.017,0.063-0.026
				C90.945,338.996,90.924,339.008,90.903,339.021z"/>
			<path style="opacity:0.1;" d="M90.416,339.336c-0.043,0.015-0.086,0.039-0.127,0.084c-0.031,0.035-0.056,0.075-0.086,0.111
				C90.26,339.453,90.345,339.401,90.416,339.336z"/>
		</g>
		<path style="fill:#37474F;" d="M137.354,392.52c0.14-0.204,0.264-0.41,0.375-0.618c0.03-0.057,0.057-0.114,0.085-0.171
			c0.088-0.18,0.164-0.361,0.23-0.544c0.021-0.057,0.043-0.113,0.061-0.171c0.073-0.229,0.134-0.458,0.172-0.689
			c0.001-0.005,0.003-0.01,0.003-0.014c0.039-0.235,0.056-0.47,0.058-0.706c0.001-0.07-0.005-0.139-0.007-0.209
			c-0.005-0.164-0.018-0.328-0.041-0.492c-0.012-0.084-0.025-0.168-0.041-0.253c-0.03-0.157-0.071-0.313-0.117-0.469
			c-0.023-0.078-0.042-0.156-0.069-0.234c-0.077-0.22-0.168-0.439-0.277-0.655c-0.034-0.068-0.079-0.135-0.117-0.203
			c-0.086-0.155-0.176-0.308-0.279-0.46c-0.061-0.091-0.128-0.18-0.195-0.27c-0.05-0.067-0.092-0.135-0.145-0.2
			c-0.075-0.084-0.153-0.178-0.234-0.271c-0.042-0.048-0.085-0.095-0.129-0.143c-2.975-3.421-7.35-5.574-12.242-5.574
			c-4.898,0-9.279,2.158-12.254,5.586c-0.036,0.039-0.071,0.077-0.105,0.116c-0.085,0.098-0.167,0.197-0.246,0.285
			c-0.056,0.07-0.102,0.142-0.154,0.212c-0.062,0.083-0.124,0.166-0.181,0.25c-0.111,0.164-0.209,0.329-0.3,0.496
			c-0.031,0.057-0.068,0.113-0.097,0.17c-0.112,0.22-0.204,0.443-0.282,0.668c-0.024,0.069-0.041,0.138-0.062,0.208
			c-0.05,0.166-0.093,0.332-0.125,0.499c-0.015,0.077-0.027,0.153-0.038,0.23c-0.025,0.174-0.038,0.349-0.043,0.523
			c-0.001,0.06-0.007,0.121-0.006,0.181c0.005,0.478,0.085,0.954,0.236,1.425c0.016,0.05,0.036,0.099,0.054,0.149
			c0.068,0.192,0.149,0.382,0.241,0.571c0.024,0.05,0.048,0.099,0.074,0.148c0.116,0.22,0.245,0.437,0.395,0.651
			c0.006,0.009,0.011,0.018,0.017,0.027c0.166,0.236,0.353,0.469,0.56,0.696c0.013,0.015,0.029,0.029,0.042,0.043
			c0.185,0.201,0.387,0.397,0.604,0.59c0.049,0.044,0.101,0.088,0.152,0.132c0.199,0.17,0.41,0.335,0.634,0.497
			c0.055,0.04,0.107,0.08,0.163,0.119c0.283,0.197,0.578,0.391,0.899,0.575c5.419,3.133,14.226,3.133,19.645,0
			c0.318-0.183,0.611-0.374,0.892-0.57c0.063-0.044,0.122-0.09,0.184-0.135c0.215-0.156,0.418-0.315,0.609-0.478
			c0.057-0.049,0.115-0.098,0.17-0.147c0.207-0.185,0.401-0.374,0.579-0.566c0.02-0.022,0.044-0.043,0.063-0.066
			c0.203-0.224,0.387-0.453,0.551-0.685C137.33,392.558,137.34,392.539,137.354,392.52z"/>
		<g style="opacity:0.3;">
			<path style="fill:#27DEBF;" d="M126.485,384.801c-0.569,0.143,0.555,2.237,1.762,5.952c0.637,1.96,0.979,4.777,4.175,3.211
				c2.944-1.442,0.475-4.843-1.806-7.015C128.589,385.019,127.096,384.648,126.485,384.801z"/>
			<path style="fill:#27DEBF;" d="M127.013,383.521c0.297,0.154,2.142,0.398,5.115,3.173c1.596,1.49,2.841,3.378,3.437,3.62
				c0.596,0.242,1.006-2.367,0-3.671c-1.006-1.304-2.818-2.847-4.875-3.464C128.635,382.563,126.516,383.263,127.013,383.521z"/>
			<path style="fill:#27DEBF;" d="M124.444,395.83c-3.069,0-3.587-0.553-2.405-5.5c0.623-2.608,1.886-5.234,2.405-5.234
				c0.519,0,1.781,2.626,2.405,5.234C128.031,395.276,127.513,395.83,124.444,395.83z"/>
			<path style="fill:#27DEBF;" d="M122.403,384.801c0.569,0.143-0.555,2.237-1.762,5.952c-0.637,1.96-0.979,4.777-4.175,3.211
				c-2.944-1.442-0.475-4.843,1.806-7.015C120.299,385.019,121.792,384.648,122.403,384.801z"/>
			<path style="fill:#27DEBF;" d="M121.875,383.521c-0.297,0.154-2.142,0.398-5.115,3.173c-1.596,1.49-2.841,3.378-3.437,3.62
				c-0.596,0.242-1.006-2.367,0-3.671c1.006-1.304,2.818-2.847,4.875-3.464C120.254,382.563,122.372,383.263,121.875,383.521z"/>
		</g>
		<path style="opacity:0.3;" d="M122.708,386.928c4.797,0.894,9.485,0.483,14.838-0.039c-0.051-0.086-0.098-0.171-0.155-0.256
			c-0.061-0.091-0.128-0.18-0.195-0.27c-0.05-0.066-0.092-0.134-0.145-0.2c-0.075-0.084-0.153-0.178-0.234-0.271
			c-0.042-0.048-0.085-0.095-0.129-0.143c-2.975-3.422-7.35-5.574-12.242-5.574c-3.932,0-7.516,1.406-10.321,3.728
			C116.515,385.241,119.345,386.302,122.708,386.928z"/>
		<path style="fill:#455A64;" d="M114.961,347.761c-9.248,3.077-12.153,11.294-10.706,18.336c1.422,6.919,6.843,14.778,19.05,17.053
			c12.238,2.28,23.742-3.929,47.477,1.187c3.913,0.844,7.936,2.008,9.055,1.138c1.211-0.941,0.701-2.762-1.284-4.251
			c-1.172-0.879-3.038-1.624-4.753-2.145c-4.155-1.261-18.403-2.888-24.274-9.788c-3.97-4.665-4.212-13.18-10.839-17.724
			C130.774,346.142,122.591,345.223,114.961,347.761z"/>
		<path style="opacity:0.05;fill:#FFFFFF;" d="M140.137,361.855c-5.777,6.403-14.156,8.045-22.422,7.843
			c-0.724-0.018-1.7,0.178-1.722,0.902c-0.011,0.368,0.264,0.677,0.531,0.931c4.006,3.803,9.913,4.836,15.436,4.76
			c5.523-0.076,10.234-0.898,16.511-0.753c1.512,0.035,3.201,0.302,4.703,0.465c1.476,0.16,3.701,0.623,4.496,0.137
			c0.796-0.486-2.012-1.225-2.796-1.462c-2.911-0.878-5.577-2.544-7.67-4.746c-1.053-1.107-1.982-2.079-2.634-3.49
			c-0.67-1.451-1.089-3.008-1.857-4.416c-0.302-0.553-0.796-1.148-1.42-1.062c-0.414,0.057-0.719,0.399-0.995,0.712
			C140.244,361.736,140.191,361.796,140.137,361.855z"/>
		<path style="opacity:0.1;" d="M171.87,381.996c-2.154-1.539-12.429-4.416-20.31-4.581c-9.405-0.197-22.821,3.027-32.497-0.228
			c-15.332-5.158-15.065-16.297-14.492-19.185c-0.789,2.641-0.86,5.451-0.317,8.095c1.422,6.919,6.843,14.778,19.05,17.053
			c12.238,2.28,23.742-3.929,47.477,1.187c2.826,0.609,5.704,1.382,7.51,1.439C174.187,385.493,172.84,383.324,171.87,381.996z"/>
		<path style="fill:#37474F;" d="M124.444,364.836c8.912,0,16.136-4.199,16.136-9.379c0-1.12-0.356-2.19-0.975-3.185
			c-0.296-0.241-0.593-0.481-0.918-0.704c-7.391-5.068-15.018-6.202-22.21-4.261c-4.875,1.614-8.169,4.656-8.169,8.15
			C108.308,360.636,115.532,364.836,124.444,364.836z"/>
		<path style="fill:#455A64;" d="M138.265,350.8c-0.106-0.119-0.212-0.252-0.332-0.385c-3.263-3.794-8.091-6.181-13.49-6.181
			c-5.399,0-10.227,2.387-13.49,6.181c-0.119,0.133-0.226,0.265-0.331,0.385c-2.626,3.263-1.605,7.255,3.051,9.935
			c5.942,3.435,15.598,3.435,21.541,0C139.87,358.056,140.892,354.063,138.265,350.8z"/>
		<g>
			<path style="fill:#37474F;" d="M126.108,343.358c0.001-0.246-0.161-0.493-0.487-0.681c-0.649-0.375-1.702-0.375-2.352,0
				c-0.325,0.188-0.487,0.433-0.487,0.679l0,0v4.259h0.022c-0.068,0.287,0.083,0.589,0.465,0.81c0.65,0.375,1.702,0.375,2.352,0
				c0.383-0.221,0.534-0.522,0.465-0.81h0.021V343.358z"/>
			<path style="opacity:0.1;" d="M126.108,343.564c0-0.09-0.029-0.179-0.072-0.266c-0.297-0.318-0.685-0.548-1.125-0.643
				c-0.151-0.026-0.303-0.051-0.459-0.052c-0.002,0-0.004-0.001-0.007-0.001c-0.002,0-0.003,0-0.004,0
				c-0.157,0-0.31,0.026-0.461,0.052c-0.441,0.096-0.828,0.326-1.125,0.643c-0.043,0.087-0.072,0.175-0.072,0.264v2.626
				c0.401,0.475,0.993,0.688,1.663,0.688c0.67,0,1.262-0.214,1.663-0.688V343.564z"/>
			<circle style="fill:#455A64;" cx="124.445" cy="343.23" r="2.847"/>
			<path style="opacity:0.5;fill:#27DEBF;" d="M122.994,342.574c0,1.163,0.943,2.106,2.106,2.106s2.106-0.943,2.106-2.106
				c0-0.004-0.001-0.008-0.001-0.011c-0.249-1.034-1.059-1.844-2.093-2.093c-0.004,0-0.007-0.001-0.011-0.001
				C123.937,340.468,122.994,341.411,122.994,342.574z"/>
			<path style="opacity:0.3;fill:#27DEBF;" d="M127.205,342.563c0,0.004,0.001,0.008,0.001,0.011c0,1.163-0.943,2.106-2.106,2.106
				s-2.106-0.943-2.106-2.106c0-1.163,0.943-2.106,2.106-2.106c0.004,0,0.007,0.001,0.011,0.001
				c-0.215-0.052-0.436-0.087-0.667-0.087c-1.573,0-2.847,1.275-2.847,2.847s1.275,2.847,2.847,2.847
				c1.572,0,2.847-1.275,2.847-2.847C127.292,342.999,127.257,342.778,127.205,342.563z"/>
		</g>
		<path style="fill:#27DEBF;" d="M174.471,380.987c-0.905,0.349-0.705,1.385,0.446,2.314c1.151,0.928,2.818,1.398,3.722,1.049
			c0.905-0.349,0.705-1.385-0.446-2.314C177.043,381.107,175.376,380.638,174.471,380.987z"/>
		<path style="fill:#263238;" d="M174.471,380.987c-0.905,0.349-0.705,1.385,0.446,2.314c1.151,0.928,2.818,1.398,3.722,1.049
			c0.905-0.349,0.705-1.385-0.446-2.314C177.043,381.107,175.376,380.638,174.471,380.987z"/>
		<path style="opacity:0.3;fill:#27DEBF;" d="M126.847,349.232c-0.67,0.168,0.653,2.634,2.075,7.009
			c0.75,2.309,1.153,5.625,4.916,3.781c3.466-1.699,0.559-5.703-2.127-8.261C129.325,349.489,127.567,349.051,126.847,349.232z"/>
		<path style="opacity:0.3;fill:#27DEBF;" d="M127.47,347.724c0.35,0.181,2.522,0.469,6.023,3.737
			c1.88,1.755,3.345,3.978,4.048,4.262c0.702,0.285,1.185-2.787,0-4.323c-1.185-1.536-3.319-3.353-5.74-4.079
			S126.884,347.421,127.47,347.724z"/>
		<path style="opacity:0.3;fill:#27DEBF;" d="M124.444,362.219c-3.614,0-4.224-0.652-2.832-6.477
			c0.734-3.072,2.221-6.164,2.832-6.164c0.611,0,2.098,3.092,2.832,6.164C128.668,361.567,128.057,362.219,124.444,362.219z"/>
		<path style="opacity:0.3;fill:#27DEBF;" d="M122.041,349.232c0.67,0.168-0.653,2.634-2.075,7.009
			c-0.75,2.309-1.153,5.625-4.916,3.781c-3.466-1.699-0.559-5.703,2.126-8.261C119.563,349.489,121.321,349.051,122.041,349.232z"/>
		<path style="opacity:0.3;fill:#27DEBF;" d="M121.418,347.724c-0.35,0.181-2.522,0.469-6.023,3.737
			c-1.88,1.755-3.345,3.978-4.048,4.262c-0.702,0.285-1.185-2.787,0-4.323c1.185-1.536,3.319-3.353,5.74-4.079
			S122.004,347.421,121.418,347.724z"/>
	</g>
</g>
<g id="Character_1_">
	<g id="Character_7_">
		<g id="XMLID_1982_">
			<path id="XMLID_475_" style="fill:#FFA8A7;" d="M360.878,206.883c5.491-1.222,11.668,2.698,15.849,11.451
				c4.005,8.384,15.58,29.476,15.847,35.398c0.277,6.142-24.723,25.262-24.02,24.93c0.216-0.102-5.589-11.821-5.589-11.821
				l13.762-13.72l-8.252-16.245L360.878,206.883z"/>
		</g>
		<path id="XMLID_2325_" style="fill:#37474F;" d="M357.985,205.566c4.628-0.565,13.015,1.188,16.218,6.745
			c4.642,8.053,8.515,15.472,14.535,26.663c0,0-4.086,8.615-15.608,9.434l-5.346-10.154L357.985,205.566z"/>
		<g id="XMLID_2272_">
			<g id="XMLID_460_">
				<g id="XMLID_2323_">
					<path id="XMLID_2324_" style="fill:#263238;" d="M367.06,405.524c0.726,0.294,0.88,1.693,0.928,4.47
						c0.037,2.101,0.404,5.775-2.071,6.452c-2.475,0.676-6.069,0.221-7.6-1.793c-1.911-2.514-3.192-4.718-5.931-7.794
						c-2.376-2.669-4.955-5.168-5.855-8.856c-0.813-3.333-0.042-4.753,2.24-5.665c3.138-1.254,7.923,3.183,10.342,3.919
						C361.198,396.891,366.334,405.231,367.06,405.524z"/>
				</g>
				<g id="XMLID_2317_">
					<path id="XMLID_2322_" style="fill:#FFA8A7;" d="M367.118,402.956l-0.077,3.406c0,0-3.603,2.642-8.612,0.039
						c-0.142-0.332-0.784-4.892-0.784-4.892L367.118,402.956z"/>
				</g>
				<g id="XMLID_2315_">
					<path id="XMLID_2316_" style="fill:#263238;" d="M339.034,424.533c0,0,0.911,2.984,1.379,5.586
						c0.372,2.069,0.895,5.524,0.138,7.057c-0.756,1.533-3.591,2.469-7.951,2.338c-2.824-0.085-7.269,1.734-10.321,3.348
						c-3.152,1.667-9.641,2.213-12.924,1.752c-3.87-0.543-7.839-2.883-8.43-4.504c-0.591-1.621,0.28-3.271,9.511-6.961
						c0.084-0.034,12.804-3.855,17.339-8.638L339.034,424.533z"/>
				</g>
				<g id="XMLID_2313_">
					<path id="XMLID_2314_" style="fill:#FFA8A7;" d="M339.116,420.85c0,0-0.069,2.527-0.089,3.972
						c-0.02,1.445-1.775,3.559-6.187,3.302c-3.099-0.181-5.246-1.064-5.065-3.615l0.083-3.682L339.116,420.85z"/>
				</g>
				<g id="XMLID_2311_">
					<path id="XMLID_2312_" style="fill:#37474F;" d="M370.351,357.804c-1.309-11.165-3.623-17.83-3.623-17.83
						s1.561-15.278,2.471-29.776c0.983-15.66,0.763-35.378,1.15-39.281c0,0-48.571-11.215-49.882,6.884
						c-1.474,20.36,0.093,65.205,0.391,70.883c0.419,7.974,0.436,16.264,1.79,29.203c1.336,12.77,5.209,42.94,5.209,42.94
						c5.707,3.254,11.258,0.023,11.258,0.023s4.376-36.149,4.209-45.342c-0.204-11.225-3.031-20.126-3.031-20.126l6.037-50.462
						c0,0,0.604,22.444,1.023,30.418c0.419,7.974,1.513,12.839,3.483,27.676c1.709,12.871,7.047,40.143,7.047,40.143
						c5.707,3.254,9.234-0.201,9.234-0.201S371.66,368.969,370.351,357.804z"/>
				</g>
				<g id="XMLID_2309_">
					<path id="XMLID_2310_" style="fill:#263238;" d="M363.899,294.35c0,0-5.883,7.906-13.448,11.299c0,0-3.29,27.79-3.263,27.238
						l-0.858-27.967C346.331,304.92,357.635,299.665,363.899,294.35z"/>
				</g>
			</g>
			<g id="XMLID_450_">
				<g id="XMLID_453_">
					<polygon id="XMLID_454_" style="fill:#FFA8A7;" points="336.63,199.343 339.252,215.883 355.649,215.008 353.297,195.785 					
						"/>
				</g>
			</g>
			<g id="XMLID_447_">
				<g id="XMLID_448_">
					<path id="XMLID_449_" style="fill:#455A64;" d="M368.715,215.13c-1.372-4.512-5.762-10.363-11.473-9.435
						c-1.326,0.216-1.361,0.213-2.618,0.434c-0.685,2.788-9.072,5.163-16.373,3.444c-2.201,0.578-4.217,1.171-6.049,1.779
						c-5.247,1.742-10.091,6.134-10.908,23.248c0,0-1.449,39.53-1.19,50.215c12.956,5.467,24.629,5.574,32.18,4.101
						c15.72-3.066,18.304-9.801,18.304-9.801s0.566-30.988,0.376-43.397C370.803,225.178,369.658,218.229,368.715,215.13z"/>
				</g>
			</g>
			<g id="XMLID_440_">
				<g id="XMLID_443_">
					<path id="XMLID_446_" style="fill:#F28F8F;" d="M325.601,179.049c0,0-3.908,5.931-3.463,6.513
						c0.445,0.583,3.322,1.108,3.322,1.108L325.601,179.049z"/>
				</g>
				<g id="XMLID_441_">
					<path id="XMLID_442_" style="fill:#FFA8A7;" d="M336.454,162.642c-7.91,1.669-10.194,5.145-10.939,17.71
						c-0.779,13.129,0.562,17.256,2.286,19.024c1.165,1.193,7.635,1.408,10.899,0.508c4.086-1.126,13.318-4.398,17.642-11.002
						c5.086-7.77,6.422-18.301,0.977-22.62C349.657,160.183,339.673,161.963,336.454,162.642z"/>
				</g>
				<path style="fill:#F28F8F;" d="M336.774,200.251c0,0,2.213-0.39,4.167-1.051c0,0-1.145,1.551-3.97,2.289L336.774,200.251z"/>
			</g>
			<g id="XMLID_2286_">
				<g id="XMLID_424_">
					<g id="XMLID_425_">
						<path id="XMLID_426_" style="fill:#263238;" d="M323.918,167.495c0.589,0.624,1.297,1.131,2.019,1.598
							c1.059,0.685,2.163,1.298,3.304,1.834c1.071,0.503,2.243,0.812,3.211,1.503c1.435,1.024,1.62,2.38,1.657,4.03
							c0.024,1.079,0.021,2.419,0.037,3.87c0.024,2.179,1.416,3.837,2.095,0.916c0,0,1.251-4.853,5.341-4.243
							c4.117,0.615,4.45,5.22,2.5,8.837c-1.187,2.201-4.364,1.625-4.364,1.625s-0.72,6.049,4.272,11.004
							c0,0,3.154,0.956,9.586-0.415c3.954-0.843,7.748-5.195,10.099-10.428c4.972-11.07,5.319-21.033-1.748-24.018
							c-0.764-5.101-4.781-7.388-9.36-8.44c-6.848-1.573-13.251,2.492-20.024,0.976c-1.101-0.247-2.24-0.51-3.303-0.867
							c-0.435-0.146-0.923-0.289-1.337-0.092c-0.526,0.251-0.678,0.932-0.64,1.513c0.087,1.307,0.858,2.548,1.991,3.207
							c-0.139-0.081-0.796,0.099-0.979,0.111c-0.379,0.025-0.76,0.031-1.14,0.04c-0.734,0.018-1.486-0.091-2.223-0.159
							c-0.513-0.047-1.041-0.092-1.535,0.052c-1.136,0.33-1.788,1.608-1.754,2.79c0.034,1.182,0.603,2.278,1.221,3.286
							c0.25,0.408,0.51,0.81,0.816,1.177C323.742,167.303,323.829,167.401,323.918,167.495z"/>
					</g>
				</g>
				<g id="XMLID_2291_">
					<g id="XMLID_2292_">
						<path id="XMLID_423_" style="fill:#263238;" d="M362.047,165.316l4.733-2.79c-0.77-1.307-2.455-1.742-3.762-0.971
							C361.712,162.325,361.277,164.009,362.047,165.316z"/>
					</g>
				</g>
			</g>
		</g>
		<path id="XMLID_422_" style="fill:#FFA8A7;" d="M268.616,239.588c2.423,1.143,31.366,23.829,35.917,21.449
			c4.55-2.38,28.279-29.307,28.279-29.307c6.947-10.945-0.202-20.437-0.202-20.437s-7.426,1.2-11.423,6.962
			c-3.997,5.762-21.183,26.345-21.183,26.345c-4.081-2.159-8.148-4.347-12.199-6.561c-3.338-1.825-6.684-3.648-9.949-5.603
			c-0.815-0.488-1.894-0.969-2.563-1.661c-1.594-1.65-1.227-5.544-1.148-7.665c0.036-0.991,0.073-1.985,0.21-2.968
			c0.169-1.208,0.467-4.17-1.736-3.278c-0.425,0.172-0.773,0.495-1.061,0.852c-0.353,0.438-0.63,0.938-0.814,1.47
			c-0.44,1.273-0.34,2.68-0.747,3.964c-0.059,0.187-0.134,0.378-0.28,0.51c-0.183,0.166-0.447,0.209-0.693,0.196
			c-3.175-0.168-6.081-4.687-7.487-7.083c-0.626-1.067-1.239-2.253-2.348-2.802c-1.721-0.852-3.835,0.264-4.989,1.798
			c-1.472,1.955-1.959,4.527-1.732,6.964c0.315,3.378,1.537,6.523,3.944,8.871C260.063,235.165,264.062,237.439,268.616,239.588z"/>
		<path id="XMLID_393_" style="fill:#37474F;" d="M334.979,210.476c-3.188,0.295-8.477,0.416-13.784,6.16
			c-6.205,6.717-15.762,19.96-15.762,19.96s1.126,9.911,11.274,13.693c0,0,14.87-13.419,18.043-19.505
			C337.922,224.7,338.63,214.714,334.979,210.476z"/>
	</g>
</g>
<g id="Speech_Bubble">
	<g id="Speach_Bubble_2_">
		<g id="XMLID_732_">
			<path id="XMLID_799_" style="fill:#27DEBF;" d="M336.461,137.001l-2.791-5.248l2.245-6.481v-3.967l-6.871,3.967v3.967
				l2.954,5.117c0.05,0.087,0.121,0.143,0.201,0.178l-0.002,0.003L336.461,137.001z"/>
			<path id="XMLID_1056_" style="opacity:0.2;" d="M336.461,137.001l-2.791-5.248l2.245-6.481v-3.967l-6.871,3.967v3.967
				l2.954,5.117c0.05,0.087,0.121,0.143,0.201,0.178l-0.002,0.003L336.461,137.001z"/>
			<path id="XMLID_1057_" style="fill:#27DEBF;" d="M366,90.407c0-1.314-0.922-2.911-2.06-3.568l-1.678-0.968
				c-1.138-0.657-2.983-0.657-4.12,0l-38.855,22.449c-1.138,0.657-2.06,2.254-2.06,3.568v20.095c0,1.314,0.923,2.911,2.06,3.568
				l1.678,0.969c1.138,0.657,2.983,0.657,4.121,0l8.274-4.78l2.948,5.107c0.188,0.327,0.673,0.28,0.797-0.076l3.116-8.995
				l23.72-13.705c1.138-0.657,2.06-2.254,2.06-3.568L366,90.407z"/>
			<path id="XMLID_756_" style="opacity:0.2;" d="M317.227,131.982c0,1.314,0.922,2.911,2.06,3.569l1.678,0.968
				c1.028,0.594,2.629,0.645,3.768,0.166c-0.97,0.367-1.708-0.18-1.708-1.355l0-20.095c0-0.657,0.231-1.385,0.603-2.031
				l-5.798-3.347c-0.373,0.646-0.603,1.373-0.603,2.03V131.982z"/>
			<g id="XMLID_734_">
				<path id="XMLID_3382_" style="opacity:0.2;fill:#FFFFFF;" d="M365.932,89.821c-0.24-0.875-1.038-1.153-1.989-0.605
					l-38.86,22.452c-0.567,0.327-1.086,0.884-1.451,1.538l-5.796-3.345c0.375-0.653,0.884-1.211,1.451-1.538l38.85-22.452
					c1.144-0.654,2.989-0.654,4.123,0l1.682,0.971C364.914,87.399,365.731,88.649,365.932,89.821z"/>
			</g>
		</g>
		<g id="XMLID_699_">
			<path id="XMLID_728_" style="fill:#FFFFFF;" d="M334.375,115.558c-1.518,0.877-2.749,3.009-2.749,4.762
				c0,1.753,1.231,2.464,2.749,1.588c1.518-0.877,2.75-3.009,2.75-4.763C337.125,115.392,335.894,114.681,334.375,115.558z"/>
			<path id="XMLID_701_" style="fill:#FFFFFF;" d="M344.512,109.693c-1.518,0.877-2.75,3.009-2.749,4.762
				c0,1.754,1.231,2.464,2.749,1.587c1.518-0.877,2.749-3.009,2.75-4.762C347.262,109.527,346.031,108.816,344.512,109.693z"/>
			<path id="XMLID_700_" style="fill:#FFFFFF;" d="M354.649,103.829c-1.518,0.877-2.75,3.009-2.749,4.762
				c0,1.753,1.231,2.464,2.749,1.587c1.518-0.877,2.749-3.009,2.749-4.762C357.399,103.663,356.168,102.952,354.649,103.829z"/>
		</g>
	</g>
</g>
</svg>
